<svg xmlns="http://www.w3.org/2000/svg" viewBox="0 0 63 63"><defs><style>.cls-1{fill:#455bd7;stroke:#455bd7;stroke-linecap:round;stroke-linejoin:round}</style></defs><g id="Слой_2" data-name="Слой 2"><g id="Layer_1" data-name="Layer 1"><path class="cls-1" d="M18.5 58.5A16 16 0 0 1 2.82 45.7l2-.4a14 14 0 0 0 27.44 0l2 .4A16 16 0 0 1 18.5 58.5z"/><path class="cls-1" d="M2.5 45.5h2v16h-2zm30 0h2v16h-2zm-15 3h2v13h-2z"/><path class="cls-1" d="M.5 60.5h62v2H.5zm35-14h-6v-2h4v-4h-24v-2h26v8z"/><path class="cls-1" d="M27.5 46.5h-26v-8h6v2h-4v4h24v2z"/><path class="cls-1" d="M32.22 39.7A14.09 14.09 0 0 0 22.23 29l-.73-.21V26.5h-6v2.3l-.73.21a14.09 14.09 0 0 0-10 10.69l-2-.4a16.14 16.14 0 0 1 10.68-12v-2.8h10v2.8a16.14 16.14 0 0 1 10.68 12zM60.5 61.5h-2v-52h-4v52h-2v-54h8v54z"/><path class="cls-1" d="M4.5 39.5h-2v-22h-2v-6h2v-5h8v5h2v6h-2v13h-2v-15h2v-2h-2v-5h-4v5h-2v2h2v24z"/><path class="cls-1" d="M3.5 11.5h3v2h-3zm0 4h3v2h-3zm47 11h12v2h-12z"/><path class="cls-1" d="M41.5 61.5h-2v-46h14v2h-12v44z"/><path class="cls-1" d="M37.5 21.5h16v2h-16zm-18 4h-2v-3a5 5 0 0 1 5-5h18v2h-18a3 3 0 0 0-3 3zm28-9h-2v-11a5 5 0 0 1 5-5h2a5 5 0 0 1 5 5v3h-2v-3a3 3 0 0 0-3-3h-2a3 3 0 0 0-3 3zm-25 10h18v2h-18zm13 4h2v2h-2zm-4 0h2v2h-2zm6 8h16v2h-16zm11 4h2v2h-2zm-4 0h2v2h-2zm-36 13h2v6h-2zm9-27h2v2h-2z"/></g></g></svg>