<svg xmlns="http://www.w3.org/2000/svg" xmlns:xlink="http://www.w3.org/1999/xlink" viewBox="0 0 165.9 89.6"><defs><path id="a" d="M0 0h165.9v89.6H0z"/></defs><clipPath id="b"><use overflow="visible" xlink:href="#a"/></clipPath><path fill="#424d71" d="M0 34.4C0 32.5.4 31 1.3 30c.9-1 2.3-1.5 4.2-1.5 1.9 0 3.3.5 4.2 1.5.9 1 1.4 2.5 1.4 4.4v18.7c0 1.9-.5 3.4-1.4 4.4-.9 1-2.3 1.5-4.2 1.5-1.9 0-3.3-.5-4.2-1.5C.4 56.5 0 55 0 53.1V34.4zm7.2.2c0-.6-.1-1.1-.3-1.5-.2-.3-.7-.5-1.3-.5-.6 0-1.1.2-1.3.5-.2.3-.4.8-.4 1.5V53c0 .6.1 1.1.4 1.4.2.4.6.6 1.3.6.6 0 1.1-.2 1.3-.5.2-.3.3-.8.3-1.5V34.6zm22.3 22.9c-.1-.2-.1-.4-.2-.6-.1-.2-.1-.5-.2-.8-.1-.4-.2-.8-.4-1.4-.2-.6-.4-1.3-.6-2.3-.3-1-.6-2.2-1-3.6s-.9-3.2-1.4-5.2v13.3c0 .6-.2 1.1-.5 1.4-.4.4-.8.5-1.4.5-.6 0-1.1-.2-1.4-.5-.4-.3-.5-.8-.5-1.4V30.7c0-.6.2-1.1.5-1.4.4-.4.8-.5 1.4-.5.6 0 1.1.2 1.4.5.3.4.5.8.5 1.4v11c.5-1.6 1.1-3.4 1.8-5.5s1.4-4.1 2.2-6.1c.2-.4.4-.8.7-1 .3-.2.7-.3 1-.3.5 0 1 .2 1.4.6.4.4.6.8.6 1.3 0 .2 0 .3-.1.5 0 .1-.2.4-.3.9l-3.6 10 3.9 13.5c.2.5.3.8.3 1v.4c0 .6-.2 1.1-.7 1.4-.5.4-1 .6-1.5.6-.4 0-.7-.1-1.1-.3-.4-.4-.7-.7-.8-1.2m24.4-.2c0 1.1-.5 1.6-1.5 1.6-.5 0-.9-.1-1.3-.4-.4-.3-.6-.8-.8-1.5-.4.7-.8 1.2-1.3 1.5-.5.4-1.2.5-2.1.5-2.6 0-3.9-1.6-3.9-4.7V50c0-1.4.2-2.6.5-3.5.4-.9.9-1.7 1.5-2.4.7-.7 1.4-1.2 2.3-1.6.9-.4 1.8-.9 2.8-1.3v-6.7c0-.6-.1-1.1-.4-1.4-.2-.3-.7-.5-1.3-.5-.6 0-1.1.2-1.3.5-.2.3-.3.8-.3 1.4v4.7c0 .5-.2 1-.5 1.3-.3.3-.8.5-1.3.5s-1-.2-1.3-.5c-.3-.3-.5-.7-.5-1.3v-4.8c0-3.9 1.7-5.8 5.2-5.8s5.3 1.9 5.3 5.8v22.3c.2.2.2.4.2.6m-3.8-13c-.8.3-1.4.6-1.8 1-.4.4-.8.8-1 1.3-.2.5-.3 1-.4 1.7v5.2c0 1.2.5 1.8 1.6 1.8.4 0 .8-.1 1-.3.2-.2.4-.5.6-1v-9.7z" class="st0" clip-path="url(#b)"/><path fill="#424d71" d="M94.3 22c0 8.1-6.5 14.6-14.6 14.6S65.1 30.1 65.1 22 71.7 7.4 79.7 7.4c8.1 0 14.6 6.5 14.6 14.6" clip-path="url(#b)"/><path fill="#424d71" d="M117.2 50.2c0 5.5-4.4 9.9-9.9 9.9s-9.9-4.4-9.9-9.9 4.4-9.9 9.9-9.9c5.4 0 9.9 4.4 9.9 9.9" class="st2" clip-path="url(#b)"/><path fill="#424d71" d="M117.3 0c-11 0-13.2 8.9-15 17.5-2 10.1-7.9 18.8-16.9 23.9-8.1 4.6-20 2.6-25.3 11.3-5.7 9.5 1.2 22.1 12.4 22.1 13.2 0 13-11.9 15.9-21.2C91.3 44 98.6 36.1 107.7 32c7.5-3.4 17-1.9 21.9-9.6 5.9-9.5-1-22.4-12.3-22.4" class="st2" clip-path="url(#b)"/><path fill="#424d71" d="M128.4 58.4c-.4.3-.8.5-1.4.5-.5 0-1-.2-1.3-.5-.3-.3-.5-.8-.5-1.3V30.7c0-.6.2-1.1.5-1.5.4-.4.9-.6 1.5-.6s1.1.2 1.5.6c.4.4.5.9.5 1.5v16.1l3.5-16.2c.1-.6.4-1 .8-1.4.4-.4.9-.6 1.6-.6.6 0 1.1.2 1.5.6.4.4.5.8.5 1.4v26.3c0 .6-.2 1.1-.5 1.4-.4.4-.8.5-1.4.5-.6 0-1.1-.2-1.4-.5-.4-.3-.5-.8-.5-1.4V39.1l-4.1 18c-.1.6-.4 1-.8 1.3m37 0c-.4.4-.8.5-1.4.5-.6 0-1.1-.2-1.4-.5-.4-.4-.5-.8-.5-1.4v-6.8c0-2 0-4 .1-6 0-2 .1-3.9.2-5.9l-3.2 18.8c-.1.5-.3 1-.7 1.3-.4.3-.8.5-1.4.5-.6 0-1.1-.2-1.4-.5-.4-.3-.6-.8-.7-1.3l-3.1-18.8c.1 1.9.1 3.9.2 5.9 0 2 .1 3.9.1 6V57c0 .6-.2 1.1-.5 1.4-.4.4-.8.5-1.4.5-.6 0-1.1-.2-1.4-.5-.4-.4-.5-.8-.5-1.4V31.6c0-.8.2-1.4.7-1.9.5-.5 1.2-.7 2.3-.7 1 0 1.7.2 2.2.6.5.4.8 1 .9 1.6l2.8 19.7 3-19.7c.1-.7.4-1.2.9-1.6.5-.4 1.2-.6 2.2-.6 1.1 0 1.8.2 2.3.7.5.5.7 1.1.7 1.9v25.3c-.5.6-.7 1.1-1 1.5M4.7 87v-6.3h-4V87H0v-7h5.4v7zm5.3-1.2v3.8h-.8V80h.8v1.1c.5-.7 1.4-1.3 2.4-1.3 1.9 0 3.1 1.4 3.1 3.6s-1.3 3.7-3.1 3.7c-1 0-1.9-.5-2.4-1.3m4.7-2.3c0-1.7-.9-3-2.4-3-1 0-1.9.6-2.3 1.2v3.4c.4.7 1.3 1.3 2.3 1.3 1.5.1 2.4-1.2 2.4-2.9m3.7 0c0-2 1.3-3.6 3.3-3.6 2.1 0 3.4 1.6 3.4 3.6s-1.3 3.7-3.4 3.7c-2-.1-3.3-1.7-3.3-3.7m5.9 0c0-1.5-.9-3-2.6-3-1.6 0-2.5 1.4-2.5 3s.9 3 2.5 3c1.7 0 2.6-1.5 2.6-3m10 3.5v-6l-2.4 6h-.2l-2.5-6v6h-.7v-7h1l2.3 5.7L34 80h1.1v7zm5.3-7v2.8h2.7c1.4 0 2.1 1 2.1 2.1s-.7 2.1-2.1 2.1h-3.5v-7h.8zm0 3.5v2.8h2.7c.9 0 1.4-.6 1.4-1.4s-.5-1.4-1.4-1.4h-2.7zm6-3.5h.8v7h-.8v-7zM59 80v7h-8.9v-7h.8v6.3h3.3V80h.7v6.3h3.4V80zm2.9 6.5c.7 0 1.2-.8 1.5-3l.5-3.5h4.4v7h-.8v-6.3h-3l-.4 2.9c-.3 2.6-1 3.6-2.2 3.6v-.7zm9.7-3c0-2 1.4-3.6 3.4-3.6 2.1 0 3.3 1.7 3.3 3.7v.2h-5.8c.1 1.5 1.1 2.8 2.7 2.8.9 0 1.7-.3 2.3-1l.4.5c-.7.7-1.6 1.1-2.7 1.1-2.2-.1-3.6-1.6-3.6-3.7m3.3-3c-1.6 0-2.5 1.4-2.5 2.7h5.1c0-1.2-.8-2.7-2.6-2.7m6.7 6.5v-7h.8v3h3.9v-3h.8v7h-.8v-3.3h-3.9V87zm9.2 0v-7h.8v3h3.9v-3h.8v7h-.8v-3.3h-3.9V87zm13.7 0v-.8c-.6.7-1.4 1-2.4 1-1.2 0-2.4-.8-2.4-2.3 0-1.5 1.2-2.3 2.4-2.3 1 0 1.8.3 2.4 1v-1.4c0-1-.8-1.6-1.9-1.6-.9 0-1.5.3-2.2 1l-.4-.6c.7-.8 1.5-1.2 2.7-1.2 1.4 0 2.5.7 2.5 2.2v5h-.7zm0-1.4v-1.5c-.5-.6-1.3-1-2.1-1-1.2 0-1.9.7-1.9 1.7s.7 1.7 1.9 1.7c.8 0 1.6-.3 2.1-.9m4.3 1.4l1.9-2.9c-1.1-.1-1.9-.9-1.9-2 0-1.2.8-2.1 2.1-2.1h3.5v7h-.8v-2.8h-2.1l-1.9 2.8h-.8zm4.9-3.5v-2.8H111c-.9 0-1.4.6-1.4 1.4 0 .8.5 1.4 1.4 1.4h2.7zm14.2 3.5l-2.3-3.1-2.3 3.1h-.9l2.8-3.6-2.6-3.4h.9l2.1 2.9 2.2-2.9h.9l-2.6 3.4 2.7 3.6zm3.8 0v-7h.7v5.8l4-5.8h.7v7h-.7v-5.9l-4 5.9zm15 0v-6l-2.4 6h-.2l-2.4-6v6h-.8v-7h1l2.3 5.7 2.2-5.7h1.1v7zm4.6 0v-7h.7v5.8l4-5.8h.7v7h-.7v-5.9l-4 5.9zm9 0l1.9-2.9c-1.1-.1-1.9-.9-1.9-2 0-1.2.8-2.1 2.1-2.1h3.5v7h-.8v-2.8H163l-1.9 2.8h-.8zm4.8-3.5v-2.8h-2.6c-.9 0-1.4.6-1.4 1.4 0 .8.5 1.4 1.4 1.4h2.6zM0 70h53.9v.3H0zm92.5 0h73.4v.3H92.5z" class="st0" clip-path="url(#b)"/></svg>