<?xml version="1.0" encoding="UTF-8" standalone="no"?>
<svg
   xmlns:dc="http://purl.org/dc/elements/1.1/"
   xmlns:cc="http://creativecommons.org/ns#"
   xmlns:rdf="http://www.w3.org/1999/02/22-rdf-syntax-ns#"
   xmlns:svg="http://www.w3.org/2000/svg"
   xmlns="http://www.w3.org/2000/svg"
   xmlns:xlink="http://www.w3.org/1999/xlink"
   xmlns:sodipodi="http://sodipodi.sourceforge.net/DTD/sodipodi-0.dtd"
   xmlns:inkscape="http://www.inkscape.org/namespaces/inkscape"
   version="1.1"
   id="Слой_1"
   x="0"
   y="0"
   viewBox="0 0 165.9 89.6"
   xml:space="preserve"
   sodipodi:docname="footer-logo.svg"
   inkscape:version="0.92.3 (2405546, 2018-03-11)"><metadata
     id="metadata40"><rdf:RDF><cc:Work
         rdf:about=""><dc:format>image/svg+xml</dc:format><dc:type
           rdf:resource="http://purl.org/dc/dcmitype/StillImage" /></cc:Work></rdf:RDF></metadata><defs
     id="defs38" /><sodipodi:namedview
     pagecolor="#ffffff"
     bordercolor="#666666"
     borderopacity="1"
     objecttolerance="10"
     gridtolerance="10"
     guidetolerance="10"
     inkscape:pageopacity="0"
     inkscape:pageshadow="2"
     inkscape:window-width="1600"
     inkscape:window-height="885"
     id="namedview36"
     showgrid="false"
     inkscape:zoom="2.2121761"
     inkscape:cx="81.593866"
     inkscape:cy="44.799999"
     inkscape:window-x="0"
     inkscape:window-y="0"
     inkscape:window-maximized="0"
     inkscape:current-layer="Слой_1" /><style
     type="text/css"
     id="style2">.st0,.st2{clip-path:url(#SVGID_2_);fill:#333}.st2{fill:#455bd7}</style><g
     id="g64"
     style="fill:#424d71;fill-opacity:1"><defs
       id="defs5"><path
         id="SVGID_1_"
         d="M0 0h165.9v89.6H0z" /></defs><clipPath
       id="SVGID_2_"><use
         xlink:href="#SVGID_1_"
         id="use7"
         overflow="visible" /></clipPath><path
       class="st0"
       d="M0 34.4C0 32.5.4 31 1.3 30c.9-1 2.3-1.5 4.2-1.5 1.9 0 3.3.5 4.2 1.5.9 1 1.4 2.5 1.4 4.4v18.7c0 1.9-.5 3.4-1.4 4.4-.9 1-2.3 1.5-4.2 1.5-1.9 0-3.3-.5-4.2-1.5C.4 56.5 0 55 0 53.1V34.4zm7.2.2c0-.6-.1-1.1-.3-1.5-.2-.3-.7-.5-1.3-.5-.6 0-1.1.2-1.3.5-.2.3-.4.8-.4 1.5V53c0 .6.1 1.1.4 1.4.2.4.6.6 1.3.6.6 0 1.1-.2 1.3-.5.2-.3.3-.8.3-1.5V34.6z"
       clip-path="url(#SVGID_2_)"
       id="path10"
       fill="#424d71"
       fill-opacity="1"
       style="fill:#424d71;fill-opacity:1" /><path
       class="st0"
       d="M29.5 57.5c-.1-.2-.1-.4-.2-.6-.1-.2-.1-.5-.2-.8-.1-.4-.2-.8-.4-1.4-.2-.6-.4-1.3-.6-2.3-.3-1-.6-2.2-1-3.6s-.9-3.2-1.4-5.2v13.3c0 .6-.2 1.1-.5 1.4-.4.4-.8.5-1.4.5-.6 0-1.1-.2-1.4-.5-.4-.3-.5-.8-.5-1.4V30.7c0-.6.2-1.1.5-1.4.4-.4.8-.5 1.4-.5.6 0 1.1.2 1.4.5.3.4.5.8.5 1.4v11c.5-1.6 1.1-3.4 1.8-5.5s1.4-4.1 2.2-6.1c.2-.4.4-.8.7-1 .3-.2.7-.3 1-.3.5 0 1 .2 1.4.6.4.4.6.8.6 1.3 0 .2 0 .3-.1.5 0 .1-.2.4-.3.9l-3.6 10 3.9 13.5c.2.5.3.8.3 1v.4c0 .6-.2 1.1-.7 1.4-.5.4-1 .6-1.5.6-.4 0-.7-.1-1.1-.3-.4-.4-.7-.7-.8-1.2"
       clip-path="url(#SVGID_2_)"
       id="path12"
       fill="#424d71"
       fill-opacity="1"
       style="fill:#424d71;fill-opacity:1" /><path
       class="st0"
       d="M53.9 57.3c0 1.1-.5 1.6-1.5 1.6-.5 0-.9-.1-1.3-.4-.4-.3-.6-.8-.8-1.5-.4.7-.8 1.2-1.3 1.5-.5.4-1.2.5-2.1.5-2.6 0-3.9-1.6-3.9-4.7V50c0-1.4.2-2.6.5-3.5.4-.9.9-1.7 1.5-2.4.7-.7 1.4-1.2 2.3-1.6.9-.4 1.8-.9 2.8-1.3v-6.7c0-.6-.1-1.1-.4-1.4-.2-.3-.7-.5-1.3-.5-.6 0-1.1.2-1.3.5-.2.3-.3.8-.3 1.4v4.7c0 .5-.2 1-.5 1.3-.3.3-.8.5-1.3.5s-1-.2-1.3-.5c-.3-.3-.5-.7-.5-1.3v-4.8c0-3.9 1.7-5.8 5.2-5.8s5.3 1.9 5.3 5.8v22.3c.2.2.2.4.2.6m-3.8-13c-.8.3-1.4.6-1.8 1-.4.4-.8.8-1 1.3-.2.5-.3 1-.4 1.7v5.2c0 1.2.5 1.8 1.6 1.8.4 0 .8-.1 1-.3.2-.2.4-.5.6-1v-9.7z"
       clip-path="url(#SVGID_2_)"
       id="path14"
       fill="#424d71"
       fill-opacity="1"
       style="fill:#424d71;fill-opacity:1" /><path
       d="M94.3 22c0 8.1-6.5 14.6-14.6 14.6S65.1 30.1 65.1 22 71.7 7.4 79.7 7.4c8.1 0 14.6 6.5 14.6 14.6"
       clip-path="url(#SVGID_2_)"
       id="path16"
       fill="#424d71"
       fill-opacity="1"
       style="fill:#424d71;fill-opacity:1" /><path
       class="st2"
       d="M117.2 50.2c0 5.5-4.4 9.9-9.9 9.9s-9.9-4.4-9.9-9.9 4.4-9.9 9.9-9.9c5.4 0 9.9 4.4 9.9 9.9"
       clip-path="url(#SVGID_2_)"
       id="path18"
       fill="#424d71"
       fill-opacity="1"
       style="fill:#424d71;fill-opacity:1" /><path
       class="st2"
       d="M117.3 0c-11 0-13.2 8.9-15 17.5-2 10.1-7.9 18.8-16.9 23.9-8.1 4.6-20 2.6-25.3 11.3-5.7 9.5 1.2 22.1 12.4 22.1 13.2 0 13-11.9 15.9-21.2C91.3 44 98.6 36.1 107.7 32c7.5-3.4 17-1.9 21.9-9.6 5.9-9.5-1-22.4-12.3-22.4"
       clip-path="url(#SVGID_2_)"
       id="path20"
       fill="#424d71"
       fill-opacity="1"
       style="fill:#424d71;fill-opacity:1" /><path
       class="st0"
       d="M128.4 58.4c-.4.3-.8.5-1.4.5-.5 0-1-.2-1.3-.5-.3-.3-.5-.8-.5-1.3V30.7c0-.6.2-1.1.5-1.5.4-.4.9-.6 1.5-.6s1.1.2 1.5.6c.4.4.5.9.5 1.5v16.1l3.5-16.2c.1-.6.4-1 .8-1.4.4-.4.9-.6 1.6-.6.6 0 1.1.2 1.5.6.4.4.5.8.5 1.4v26.3c0 .6-.2 1.1-.5 1.4-.4.4-.8.5-1.4.5-.6 0-1.1-.2-1.4-.5-.4-.3-.5-.8-.5-1.4V39.1l-4.1 18c-.1.6-.4 1-.8 1.3"
       clip-path="url(#SVGID_2_)"
       id="path22"
       fill="#424d71"
       fill-opacity="1"
       style="fill:#424d71;fill-opacity:1" /><path
       class="st0"
       d="M165.4 58.4c-.4.4-.8.5-1.4.5-.6 0-1.1-.2-1.4-.5-.4-.4-.5-.8-.5-1.4v-6.8c0-2 0-4 .1-6 0-2 .1-3.9.2-5.9l-3.2 18.8c-.1.5-.3 1-.7 1.3-.4.3-.8.5-1.4.5-.6 0-1.1-.2-1.4-.5-.4-.3-.6-.8-.7-1.3l-3.1-18.8c.1 1.9.1 3.9.2 5.9 0 2 .1 3.9.1 6V57c0 .6-.2 1.1-.5 1.4-.4.4-.8.5-1.4.5-.6 0-1.1-.2-1.4-.5-.4-.4-.5-.8-.5-1.4V31.6c0-.8.2-1.4.7-1.9.5-.5 1.2-.7 2.3-.7 1 0 1.7.2 2.2.6.5.4.8 1 .9 1.6l2.8 19.7 3-19.7c.1-.7.4-1.2.9-1.6.5-.4 1.2-.6 2.2-.6 1.1 0 1.8.2 2.3.7.5.5.7 1.1.7 1.9v25.3c-.5.6-.7 1.1-1 1.5"
       clip-path="url(#SVGID_2_)"
       id="path24"
       fill="#424d71"
       fill-opacity="1"
       style="fill:#424d71;fill-opacity:1" /><path
       class="st0"
       clip-path="url(#SVGID_2_)"
       id="polygon26"
       fill="#424d71"
       fill-opacity="1"
       d="M4.7 87v-6.3h-4V87H0v-7h5.4v7z"
       style="fill:#424d71;fill-opacity:1" /><path
       class="st0"
       d="M10 85.8v3.8h-.8V80h.8v1.1c.5-.7 1.4-1.3 2.4-1.3 1.9 0 3.1 1.4 3.1 3.6s-1.3 3.7-3.1 3.7c-1 0-1.9-.5-2.4-1.3m4.7-2.3c0-1.7-.9-3-2.4-3-1 0-1.9.6-2.3 1.2v3.4c.4.7 1.3 1.3 2.3 1.3 1.5.1 2.4-1.2 2.4-2.9"
       clip-path="url(#SVGID_2_)"
       id="path28"
       fill="#424d71"
       fill-opacity="1"
       style="fill:#424d71;fill-opacity:1" /><path
       class="st0"
       d="M18.4 83.5c0-2 1.3-3.6 3.3-3.6 2.1 0 3.4 1.6 3.4 3.6s-1.3 3.7-3.4 3.7c-2-.1-3.3-1.7-3.3-3.7m5.9 0c0-1.5-.9-3-2.6-3-1.6 0-2.5 1.4-2.5 3s.9 3 2.5 3c1.7 0 2.6-1.5 2.6-3"
       clip-path="url(#SVGID_2_)"
       id="path30"
       fill="#424d71"
       fill-opacity="1"
       style="fill:#424d71;fill-opacity:1" /><path
       class="st0"
       clip-path="url(#SVGID_2_)"
       id="polygon32"
       fill="#424d71"
       fill-opacity="1"
       d="M34.3 87v-6l-2.4 6h-.2l-2.5-6v6h-.7v-7h1l2.3 5.7L34 80h1.1v7z"
       style="fill:#424d71;fill-opacity:1" /><path
       class="st0"
       d="M39.6 80v2.8h2.7c1.4 0 2.1 1 2.1 2.1s-.7 2.1-2.1 2.1h-3.5v-7h.8zm0 3.5v2.8h2.7c.9 0 1.4-.6 1.4-1.4s-.5-1.4-1.4-1.4h-2.7zm6-3.5h.8v7h-.8v-7z"
       clip-path="url(#SVGID_2_)"
       id="path34"
       fill="#424d71"
       fill-opacity="1"
       style="fill:#424d71;fill-opacity:1" /><path
       class="st0"
       clip-path="url(#SVGID_2_)"
       id="polygon36"
       fill="#424d71"
       fill-opacity="1"
       d="M59 80v7h-8.9v-7h.8v6.3h3.3V80h.7v6.3h3.4V80z"
       style="fill:#424d71;fill-opacity:1" /><path
       class="st0"
       d="M61.9 86.5c.7 0 1.2-.8 1.5-3l.5-3.5h4.4v7h-.8v-6.3h-3l-.4 2.9c-.3 2.6-1 3.6-2.2 3.6v-.7z"
       clip-path="url(#SVGID_2_)"
       id="path38"
       fill="#424d71"
       fill-opacity="1"
       style="fill:#424d71;fill-opacity:1" /><path
       class="st0"
       d="M71.6 83.5c0-2 1.4-3.6 3.4-3.6 2.1 0 3.3 1.7 3.3 3.7v.2h-5.8c.1 1.5 1.1 2.8 2.7 2.8.9 0 1.7-.3 2.3-1l.4.5c-.7.7-1.6 1.1-2.7 1.1-2.2-.1-3.6-1.6-3.6-3.7m3.3-3c-1.6 0-2.5 1.4-2.5 2.7h5.1c0-1.2-.8-2.7-2.6-2.7"
       clip-path="url(#SVGID_2_)"
       id="path40"
       fill="#424d71"
       fill-opacity="1"
       style="fill:#424d71;fill-opacity:1" /><path
       class="st0"
       clip-path="url(#SVGID_2_)"
       id="polygon42"
       fill="#424d71"
       fill-opacity="1"
       d="M81.6 87v-7h.8v3h3.9v-3h.8v7h-.8v-3.3h-3.9V87z"
       style="fill:#424d71;fill-opacity:1" /><path
       class="st0"
       clip-path="url(#SVGID_2_)"
       id="polygon44"
       fill="#424d71"
       fill-opacity="1"
       d="M90.8 87v-7h.8v3h3.9v-3h.8v7h-.8v-3.3h-3.9V87z"
       style="fill:#424d71;fill-opacity:1" /><path
       class="st0"
       d="M104.5 87v-.8c-.6.7-1.4 1-2.4 1-1.2 0-2.4-.8-2.4-2.3 0-1.5 1.2-2.3 2.4-2.3 1 0 1.8.3 2.4 1v-1.4c0-1-.8-1.6-1.9-1.6-.9 0-1.5.3-2.2 1l-.4-.6c.7-.8 1.5-1.2 2.7-1.2 1.4 0 2.5.7 2.5 2.2v5h-.7zm0-1.4v-1.5c-.5-.6-1.3-1-2.1-1-1.2 0-1.9.7-1.9 1.7s.7 1.7 1.9 1.7c.8 0 1.6-.3 2.1-.9"
       clip-path="url(#SVGID_2_)"
       id="path46"
       fill="#424d71"
       fill-opacity="1"
       style="fill:#424d71;fill-opacity:1" /><path
       class="st0"
       d="M108.8 87l1.9-2.9c-1.1-.1-1.9-.9-1.9-2 0-1.2.8-2.1 2.1-2.1h3.5v7h-.8v-2.8h-2.1l-1.9 2.8h-.8zm4.9-3.5v-2.8H111c-.9 0-1.4.6-1.4 1.4 0 .8.5 1.4 1.4 1.4h2.7z"
       clip-path="url(#SVGID_2_)"
       id="path48"
       fill="#424d71"
       fill-opacity="1"
       style="fill:#424d71;fill-opacity:1" /><path
       class="st0"
       clip-path="url(#SVGID_2_)"
       id="polygon50"
       fill="#424d71"
       fill-opacity="1"
       d="M127.9 87l-2.3-3.1-2.3 3.1h-.9l2.8-3.6-2.6-3.4h.9l2.1 2.9 2.2-2.9h.9l-2.6 3.4 2.7 3.6z"
       style="fill:#424d71;fill-opacity:1" /><path
       class="st0"
       clip-path="url(#SVGID_2_)"
       id="polygon52"
       fill="#424d71"
       fill-opacity="1"
       d="M131.7 87v-7h.7v5.8l4-5.8h.7v7h-.7v-5.9l-4 5.9z"
       style="fill:#424d71;fill-opacity:1" /><path
       class="st0"
       clip-path="url(#SVGID_2_)"
       id="polygon54"
       fill="#424d71"
       fill-opacity="1"
       d="M146.7 87v-6l-2.4 6h-.2l-2.4-6v6h-.8v-7h1l2.3 5.7 2.2-5.7h1.1v7z"
       style="fill:#424d71;fill-opacity:1" /><path
       class="st0"
       clip-path="url(#SVGID_2_)"
       id="polygon56"
       fill="#424d71"
       fill-opacity="1"
       d="M151.3 87v-7h.7v5.8l4-5.8h.7v7h-.7v-5.9l-4 5.9z"
       style="fill:#424d71;fill-opacity:1" /><path
       class="st0"
       d="M160.3 87l1.9-2.9c-1.1-.1-1.9-.9-1.9-2 0-1.2.8-2.1 2.1-2.1h3.5v7h-.8v-2.8H163l-1.9 2.8h-.8zm4.8-3.5v-2.8h-2.6c-.9 0-1.4.6-1.4 1.4 0 .8.5 1.4 1.4 1.4h2.6z"
       clip-path="url(#SVGID_2_)"
       id="path58"
       fill="#424d71"
       fill-opacity="1"
       style="fill:#424d71;fill-opacity:1" /><path
       class="st0"
       clip-path="url(#SVGID_2_)"
       id="rect60"
       fill="#424d71"
       fill-opacity="1"
       d="M0 70h53.9v.3H0z"
       style="fill:#424d71;fill-opacity:1" /><path
       class="st0"
       clip-path="url(#SVGID_2_)"
       id="rect62"
       fill="#424d71"
       fill-opacity="1"
       d="M92.5 70h73.4v.3H92.5z"
       style="fill:#424d71;fill-opacity:1" /></g></svg>