<svg version="1.1" id="Слой_1" xmlns="http://www.w3.org/2000/svg" xmlns:xlink="http://www.w3.org/1999/xlink" x="0" y="0" viewBox="0 0 297.7 74.8" xml:space="preserve"><style>.st0,.st2{clip-path:url(#SVGID_2_);fill:#333}.st2{fill:#455bd7}</style><defs><path id="SVGID_1_" d="M0 0h297.7v74.8H0z"/></defs><clipPath id="SVGID_2_"><use xlink:href="#SVGID_1_" overflow="visible"/></clipPath><path class="st0" d="M0 34.4C0 32.5.4 31 1.3 30c.9-1 2.3-1.5 4.2-1.5 1.9 0 3.3.5 4.2 1.5.9 1 1.4 2.5 1.4 4.4v18.7c0 1.9-.5 3.4-1.4 4.4-.9 1-2.3 1.5-4.2 1.5-1.9 0-3.3-.5-4.2-1.5C.4 56.5 0 55 0 53.1V34.4zm7.2.2c0-.6-.1-1.1-.3-1.5-.2-.3-.7-.5-1.3-.5-.6 0-1.1.2-1.3.5-.2.3-.4.8-.4 1.5V53c0 .6.1 1.1.4 1.4.2.4.6.6 1.3.6.6 0 1.1-.2 1.3-.5.2-.3.3-.8.3-1.5V34.6zm22.3 22.9c-.1-.2-.1-.4-.2-.6-.1-.2-.1-.5-.2-.8-.1-.3-.2-.8-.4-1.4-.2-.6-.4-1.3-.6-2.3-.3-1-.6-2.2-1-3.6s-.9-3.2-1.4-5.2v13.3c0 .6-.2 1.1-.5 1.4-.4.4-.8.5-1.4.5-.6 0-1.1-.2-1.4-.5-.4-.3-.5-.8-.5-1.4V30.7c0-.6.2-1.1.5-1.4.4-.4.8-.5 1.4-.5.6 0 1.1.2 1.4.5.4.4.5.8.5 1.4v11c.5-1.6 1.1-3.4 1.8-5.5s1.4-4.1 2.2-6.1c.2-.4.4-.8.7-1 .3-.2.7-.3 1-.3.5 0 1 .2 1.4.6.4.4.6.8.6 1.3 0 .2 0 .3-.1.5 0 .1-.2.4-.3.9l-3.6 10 3.9 13.5c.2.5.3.8.3 1v.4c0 .6-.2 1.1-.7 1.4-.5.4-1 .6-1.5.6-.4 0-.8-.1-1.1-.3-.4-.4-.7-.7-.8-1.2m24.4-.2c0 1.1-.5 1.6-1.5 1.6-.5 0-.9-.1-1.3-.4-.4-.3-.6-.8-.8-1.5-.4.7-.8 1.2-1.3 1.5-.5.4-1.2.5-2.1.5-2.6 0-3.9-1.6-3.9-4.7V50c0-1.4.2-2.6.5-3.5.4-.9.9-1.7 1.5-2.4.7-.7 1.4-1.2 2.3-1.6.9-.4 1.8-.9 2.8-1.3v-6.7c0-.6-.1-1.1-.4-1.4-.2-.3-.7-.5-1.3-.5-.6 0-1.1.2-1.3.5-.2.3-.3.8-.3 1.4v4.7c0 .5-.2 1-.5 1.3-.3.3-.8.5-1.3.5s-1-.2-1.3-.5c-.3-.3-.5-.7-.5-1.3v-4.8c0-3.9 1.7-5.8 5.2-5.8s5.3 1.9 5.3 5.8v22.3c.2.2.2.4.2.6m-3.8-13c-.8.3-1.4.6-1.8 1-.4.4-.8.8-1 1.3-.2.5-.3 1-.4 1.7v5.2c0 1.2.5 1.8 1.6 1.8.4 0 .8-.1 1-.3.2-.2.4-.5.6-1v-9.7z"/><path d="M94.3 22c0 8.1-6.5 14.6-14.6 14.6S65.1 30.1 65.1 22 71.7 7.4 79.7 7.4c8.1 0 14.6 6.5 14.6 14.6" clip-path="url(#SVGID_2_)" fill="#ea961c"/><path class="st2" d="M117.2 50.2c0 5.5-4.4 9.9-9.9 9.9s-9.9-4.4-9.9-9.9 4.4-9.9 9.9-9.9c5.4 0 9.9 4.4 9.9 9.9"/><path class="st2" d="M117.3 0c-11 0-13.2 8.9-15 17.5-2 10.1-7.9 18.8-16.9 23.9-8.1 4.6-20 2.6-25.3 11.3-5.7 9.5 1.2 22.1 12.4 22.1 13.2 0 13-11.9 15.9-21.2C91.3 44 98.6 36.1 107.7 32c7.5-3.4 17-1.9 21.9-9.6 5.9-9.5-1-22.4-12.3-22.4"/><path class="st0" d="M128.4 58.4c-.4.3-.8.5-1.4.5-.5 0-1-.2-1.3-.5-.3-.3-.5-.8-.5-1.3V30.7c0-.6.2-1.1.5-1.5.4-.4.9-.5 1.5-.5s1.1.2 1.5.5c.4.4.5.9.5 1.5v16.1l3.5-16.2c.1-.6.4-1 .8-1.4.4-.4.9-.5 1.6-.5.6 0 1.1.2 1.5.5.4.4.5.8.5 1.4v26.3c0 .6-.2 1.1-.5 1.4-.4.4-.8.5-1.4.5-.6 0-1.1-.2-1.4-.5-.4-.4-.5-.8-.5-1.4V39.1l-4.1 18c-.1.6-.4 1-.8 1.3m37 0c-.4.4-.8.5-1.4.5-.6 0-1.1-.2-1.4-.5-.4-.4-.5-.8-.5-1.4v-6.8c0-2 0-4 .1-6 0-2 .1-3.9.2-5.9l-3.2 18.8c-.1.5-.3 1-.7 1.3-.4.3-.8.5-1.4.5-.6 0-1.1-.2-1.4-.5-.4-.3-.6-.8-.7-1.3l-3.1-18.8c.1 1.9.1 3.9.2 5.9 0 2 .1 3.9.1 6V57c0 .6-.2 1.1-.5 1.4-.4.4-.8.5-1.4.5-.6 0-1.1-.2-1.4-.5-.4-.4-.5-.8-.5-1.4V31.6c0-.8.2-1.4.7-1.9.5-.5 1.2-.7 2.3-.7 1 0 1.7.2 2.2.6.5.4.8 1 .9 1.6l2.8 19.7 3-19.7c.1-.7.4-1.2.9-1.6.5-.4 1.2-.6 2.2-.6 1.1 0 1.8.2 2.3.7.5.5.7 1.1.7 1.9v25.3c-.5.6-.7 1.1-1 1.5M200 38.8v-6.5h-4.1v6.5h-.8v-7.2h5.7v7.2zm4-1.2v3.9h-.8v-10h.8v1.1c.5-.7 1.4-1.3 2.5-1.3 1.9 0 3.2 1.5 3.2 3.8s-1.3 3.8-3.2 3.8c-1 .1-1.9-.4-2.5-1.3m4.9-2.4c0-1.8-.9-3.1-2.5-3.1-1 0-2 .6-2.4 1.3V37c.4.7 1.4 1.3 2.4 1.3 1.6 0 2.5-1.4 2.5-3.1m2.4 0c0-2.1 1.4-3.8 3.5-3.8s3.5 1.7 3.5 3.8c0 2.1-1.4 3.8-3.5 3.8-2.2 0-3.5-1.7-3.5-3.8m6.1 0c0-1.6-.9-3.1-2.7-3.1-1.7 0-2.6 1.5-2.6 3.1s1 3.1 2.6 3.1c1.8 0 2.7-1.5 2.7-3.1m8.9 3.6v-6.2l-2.5 6.2h-.2l-2.6-6.2v6.2h-.7v-7.2h1l2.4 5.8 2.3-5.8h1.1v7.2zm4-7.2v3h2.8c1.4 0 2.2 1 2.2 2.1 0 1.2-.8 2.1-2.2 2.1h-3.6v-7.2h.8zm0 3.6v2.9h2.8c.9 0 1.4-.6 1.4-1.4 0-.8-.5-1.5-1.4-1.5h-2.8zm6.3-3.6h.8v7.2h-.8v-7.2zm12.4 0v7.2h-9.2v-7.2h.8v6.5h3.4v-6.5h.8v6.5h3.4v-6.5zm1.5 6.7c.7 0 1.2-.8 1.5-3.1l.5-3.6h4.6v7.2h-.8v-6.6h-3.1l-.4 3c-.4 2.7-1.1 3.7-2.3 3.7v-.6zm8.6-3.1c0-2.1 1.5-3.8 3.5-3.8 2.2 0 3.4 1.8 3.4 3.8v.2h-6c.1 1.6 1.1 2.9 2.8 2.9.9 0 1.8-.3 2.4-1l.4.5c-.7.8-1.6 1.2-2.8 1.2-2.2 0-3.7-1.6-3.7-3.8m3.5-3.1c-1.7 0-2.6 1.5-2.6 2.8h5.3c-.1-1.3-.9-2.8-2.7-2.8m5.5 6.7v-7.2h.7v3.1h4.1v-3.1h.8v7.2h-.8v-3.4h-4.1v3.4zm8.1 0v-7.2h.7v3.1h4.1v-3.1h.8v7.2h-.8v-3.4h-4.1v3.4zm12.7 0V38c-.6.7-1.5 1-2.5 1-1.2 0-2.5-.9-2.5-2.4 0-1.6 1.3-2.4 2.5-2.4 1 0 1.8.3 2.5 1v-1.5c0-1.1-.9-1.7-1.9-1.7-.9 0-1.6.3-2.3 1.1l-.4-.5c.8-.8 1.6-1.2 2.8-1.2 1.5 0 2.6.7 2.6 2.3v5.1h-.8zm0-1.4v-1.6c-.5-.7-1.3-1-2.2-1-1.2 0-2 .8-2 1.8s.8 1.8 2 1.8c.8 0 1.7-.4 2.2-1m2.9 1.4l2-3c-1.2-.1-2-.9-2-2.1 0-1.2.8-2.1 2.2-2.1h3.6v7.2h-.8v-3h-2.2l-1.9 3h-.9zm5.1-3.6v-2.9h-2.7c-.9 0-1.5.6-1.5 1.5s.5 1.5 1.5 1.5h2.7zm-97 21.6l-2.4-3.2-2.4 3.2h-1l2.9-3.7-2.7-3.5h.9l2.3 2.9 2.2-2.9h1l-2.8 3.5 2.9 3.7zm2.4 0v-7.2h.8v6l4.1-6h.8v7.2h-.8v-6.1l-4.2 6.1zm14.1 0v-6.2l-2.4 6.2h-.3l-2.5-6.2v6.2h-.8v-7.2h1l2.4 5.8 2.3-5.8h1.1v7.2zm3.3 0v-7.2h.7v6l4.2-6h.7v7.2h-.8v-6.1l-4.1 6.1zm7.8 0l2-3c-1.2-.1-2-.9-2-2.1 0-1.2.8-2.1 2.2-2.1h3.6v7.2h-.8v-3h-2.2l-1.9 3h-.9zm5.1-3.6v-2.9h-2.7c-.9 0-1.5.6-1.5 1.5s.5 1.5 1.5 1.5h2.7zM181.1 29h.3v30.1h-.3z"/></svg>