<svg xmlns="http://www.w3.org/2000/svg" xmlns:xlink="http://www.w3.org/1999/xlink" version="1.1" id="Слой_1" x="0" y="0" viewBox="0 0 297.7 74.8" xml:space="preserve"><style type="text/css" id="style2">.st0,.st2{clip-path:url(#SVGID_2_);fill:#333}.st2{fill:#455bd7}</style><g id="g62"><defs id="defs5"><path id="SVGID_1_" d="M0 0h297.7v74.8H0z"/></defs><clipPath id="SVGID_2_"><use xlink:href="#SVGID_1_" id="use7" overflow="visible"/></clipPath><path class="st0" d="M0 34.4C0 32.5.4 31 1.3 30c.9-1 2.3-1.5 4.2-1.5 1.9 0 3.3.5 4.2 1.5.9 1 1.4 2.5 1.4 4.4v18.7c0 1.9-.5 3.4-1.4 4.4-.9 1-2.3 1.5-4.2 1.5-1.9 0-3.3-.5-4.2-1.5C.4 56.5 0 55 0 53.1V34.4zm7.2.2c0-.6-.1-1.1-.3-1.5-.2-.3-.7-.5-1.3-.5-.6 0-1.1.2-1.3.5-.2.3-.4.8-.4 1.5V53c0 .6.1 1.1.4 1.4.2.4.6.6 1.3.6.6 0 1.1-.2 1.3-.5.2-.3.3-.8.3-1.5V34.6z" clip-path="url(#SVGID_2_)" id="path10"/><path class="st0" d="M29.5 57.5c-.1-.2-.1-.4-.2-.6-.1-.2-.1-.5-.2-.8-.1-.3-.2-.8-.4-1.4-.2-.6-.4-1.3-.6-2.3-.3-1-.6-2.2-1-3.6s-.9-3.2-1.4-5.2v13.3c0 .6-.2 1.1-.5 1.4-.4.4-.8.5-1.4.5-.6 0-1.1-.2-1.4-.5-.4-.3-.5-.8-.5-1.4V30.7c0-.6.2-1.1.5-1.4.4-.4.8-.5 1.4-.5.6 0 1.1.2 1.4.5.4.4.5.8.5 1.4v11c.5-1.6 1.1-3.4 1.8-5.5s1.4-4.1 2.2-6.1c.2-.4.4-.8.7-1 .3-.2.7-.3 1-.3.5 0 1 .2 1.4.6.4.4.6.8.6 1.3 0 .2 0 .3-.1.5 0 .1-.2.4-.3.9l-3.6 10 3.9 13.5c.2.5.3.8.3 1v.4c0 .6-.2 1.1-.7 1.4-.5.4-1 .6-1.5.6-.4 0-.8-.1-1.1-.3-.4-.4-.7-.7-.8-1.2" clip-path="url(#SVGID_2_)" id="path12"/><path class="st0" d="M53.9 57.3c0 1.1-.5 1.6-1.5 1.6-.5 0-.9-.1-1.3-.4-.4-.3-.6-.8-.8-1.5-.4.7-.8 1.2-1.3 1.5-.5.4-1.2.5-2.1.5-2.6 0-3.9-1.6-3.9-4.7V50c0-1.4.2-2.6.5-3.5.4-.9.9-1.7 1.5-2.4.7-.7 1.4-1.2 2.3-1.6.9-.4 1.8-.9 2.8-1.3v-6.7c0-.6-.1-1.1-.4-1.4-.2-.3-.7-.5-1.3-.5-.6 0-1.1.2-1.3.5-.2.3-.3.8-.3 1.4v4.7c0 .5-.2 1-.5 1.3-.3.3-.8.5-1.3.5s-1-.2-1.3-.5c-.3-.3-.5-.7-.5-1.3v-4.8c0-3.9 1.7-5.8 5.2-5.8s5.3 1.9 5.3 5.8v22.3c.2.2.2.4.2.6m-3.8-13c-.8.3-1.4.6-1.8 1-.4.4-.8.8-1 1.3-.2.5-.3 1-.4 1.7v5.2c0 1.2.5 1.8 1.6 1.8.4 0 .8-.1 1-.3.2-.2.4-.5.6-1v-9.7z" clip-path="url(#SVGID_2_)" id="path14"/><path d="M94.3 22c0 8.1-6.5 14.6-14.6 14.6S65.1 30.1 65.1 22 71.7 7.4 79.7 7.4c8.1 0 14.6 6.5 14.6 14.6" clip-path="url(#SVGID_2_)" id="path16" fill="#ea961c"/><path class="st2" d="M117.2 50.2c0 5.5-4.4 9.9-9.9 9.9s-9.9-4.4-9.9-9.9 4.4-9.9 9.9-9.9c5.4 0 9.9 4.4 9.9 9.9" clip-path="url(#SVGID_2_)" id="path18"/><path class="st2" d="M117.3 0c-11 0-13.2 8.9-15 17.5-2 10.1-7.9 18.8-16.9 23.9-8.1 4.6-20 2.6-25.3 11.3-5.7 9.5 1.2 22.1 12.4 22.1 13.2 0 13-11.9 15.9-21.2C91.3 44 98.6 36.1 107.7 32c7.5-3.4 17-1.9 21.9-9.6 5.9-9.5-1-22.4-12.3-22.4" clip-path="url(#SVGID_2_)" id="path20"/><path class="st0" d="M128.4 58.4c-.4.3-.8.5-1.4.5-.5 0-1-.2-1.3-.5-.3-.3-.5-.8-.5-1.3V30.7c0-.6.2-1.1.5-1.5.4-.4.9-.5 1.5-.5s1.1.2 1.5.5c.4.4.5.9.5 1.5v16.1l3.5-16.2c.1-.6.4-1 .8-1.4.4-.4.9-.5 1.6-.5.6 0 1.1.2 1.5.5.4.4.5.8.5 1.4v26.3c0 .6-.2 1.1-.5 1.4-.4.4-.8.5-1.4.5-.6 0-1.1-.2-1.4-.5-.4-.4-.5-.8-.5-1.4V39.1l-4.1 18c-.1.6-.4 1-.8 1.3" clip-path="url(#SVGID_2_)" id="path22"/><path class="st0" d="M165.4 58.4c-.4.4-.8.5-1.4.5-.6 0-1.1-.2-1.4-.5-.4-.4-.5-.8-.5-1.4v-6.8c0-2 0-4 .1-6 0-2 .1-3.9.2-5.9l-3.2 18.8c-.1.5-.3 1-.7 1.3-.4.3-.8.5-1.4.5-.6 0-1.1-.2-1.4-.5-.4-.3-.6-.8-.7-1.3l-3.1-18.8c.1 1.9.1 3.9.2 5.9 0 2 .1 3.9.1 6V57c0 .6-.2 1.1-.5 1.4-.4.4-.8.5-1.4.5-.6 0-1.1-.2-1.4-.5-.4-.4-.5-.8-.5-1.4V31.6c0-.8.2-1.4.7-1.9.5-.5 1.2-.7 2.3-.7 1 0 1.7.2 2.2.6.5.4.8 1 .9 1.6l2.8 19.7 3-19.7c.1-.7.4-1.2.9-1.6.5-.4 1.2-.6 2.2-.6 1.1 0 1.8.2 2.3.7.5.5.7 1.1.7 1.9v25.3c-.5.6-.7 1.1-1 1.5" clip-path="url(#SVGID_2_)" id="path24"/></g></svg>