<svg xmlns="http://www.w3.org/2000/svg" width="22" height="25"><g fill="#455bd7"><path d="M11.9 15.8v-1.6c0-.3.3-.6.6-.6h.9c0-1.4-1.5-3.5-2.4-4.6-.4.5-2.4 2.8-2.4 4.5 0 1.8 1.7 3 3.3 2.3z"/><path d="M13.4 13.5c0-1.7-2-4-2.4-4.5-1 1.1-2.5 3.1-2.4 4.6h.9c.3 0 .6.3.6.6v1.6c1.6.7 3.3-.5 3.3-2.3zm-9.5 2.3v-1.6c0-.3.3-.6.6-.6h.9C5.5 12.1 4 10.1 3 9c-.4.5-2.4 2.8-2.4 4.5 0 1.8 1.7 3 3.3 2.3z"/><path d="M5.4 13.5c0-1.7-2-4-2.4-4.5C2 10.1.5 12.1.6 13.6h.9c.3 0 .6.3.6.6v1.6c1.6.7 3.3-.5 3.3-2.3zm14.5 2.3v-1.6c0-.3.3-.6.6-.6h.9c0-1.4-1.5-3.5-2.4-4.6-.4.5-2.4 2.8-2.4 4.5 0 1.8 1.7 3 3.3 2.3z"/><path d="M21.4 13.5c0-1.7-2-4-2.4-4.5-1 1.1-2.5 3.1-2.4 4.6h.9c.3 0 .6.3.6.6v1.6c1.6.7 3.3-.5 3.3-2.3zm-9.5 11.3v-1.6c0-.3.3-.6.6-.6h.9c0-1.4-1.5-3.5-2.4-4.6-.4.5-2.4 2.8-2.4 4.5 0 1.8 1.7 3 3.3 2.3z"/><path d="M13.4 22.5c0-1.7-2-4-2.4-4.5-1 1.1-2.5 3.1-2.4 4.6h.9c.3 0 .6.3.6.6v1.6c1.6.7 3.3-.5 3.3-2.3zm-9.5 2.3v-1.6c0-.3.3-.6.6-.6h.9C5.5 21.1 4 19.1 3 18c-.4.5-2.4 2.8-2.4 4.5 0 1.8 1.7 3 3.3 2.3z"/><path d="M5.4 22.5c0-1.7-2-4-2.4-4.5C2 19.1.5 21.1.6 22.6h.9c.3 0 .6.3.6.6v1.6c1.6.7 3.3-.5 3.3-2.3zm14.5 2.3v-1.6c0-.3.3-.6.6-.6h.9c0-1.4-1.5-3.5-2.4-4.6-.4.5-2.4 2.8-2.4 4.5 0 1.8 1.7 3 3.3 2.3z"/><path d="M21.4 22.5c0-1.7-2-4-2.4-4.5-1 1.1-2.5 3.1-2.4 4.6h.9c.3 0 .6.3.6.6v1.6c1.6.7 3.3-.5 3.3-2.3zM11.9 6.8V5.2c0-.3.3-.6.6-.6h.9C13.5 3.1 12 1.1 11 0c-.4.5-2.4 2.8-2.4 4.5 0 1.8 1.7 3 3.3 2.3z"/><path d="M13.4 4.5c0-1.7-2-4-2.4-4.5-1 1.1-2.5 3.1-2.4 4.6h.9c.3 0 .6.3.6.6v1.6c1.6.7 3.3-.5 3.3-2.3zM3.9 6.8V5.2c0-.3.3-.6.6-.6h.9C5.5 3.1 4 1.1 3 0 2.6.5.6 2.8.6 4.5c0 1.8 1.7 3 3.3 2.3z"/><path d="M5.4 4.5c0-1.7-2-4-2.4-4.5C2 1.1.5 3.1.6 4.6h.9c.3 0 .6.3.6.6v1.6c1.6.7 3.3-.5 3.3-2.3zm14.5 2.3V5.2c0-.3.3-.6.6-.6h.9C21.5 3.1 20 1.1 19 0c-.4.5-2.4 2.8-2.4 4.5 0 1.8 1.7 3 3.3 2.3z"/><path d="M21.4 4.5c0-1.7-2-4-2.4-4.5-1 1.1-2.5 3.1-2.4 4.6h.9c.3 0 .6.3.6.6v1.6c1.6.7 3.3-.5 3.3-2.3z"/></g></svg>