<svg xmlns="http://www.w3.org/2000/svg" xmlns:xlink="http://www.w3.org/1999/xlink" viewBox="0 0 22 25"><style>.st0{display:none}</style><g id="Векторный_смарт-объект_копия_57_xA0_Изображение_1_" class="st0"><image width="6" height="7" id="Векторный_смарт-объект_копия_57_xA0_Изображение" xlink:href="701FDA79.png" transform="translate(7.74 10.059)" display="inline" overflow="visible"/></g><g id="Векторный_смарт-объект_копия_21_xA0_Изображение_1_" class="st0"><image width="6" height="7" id="Векторный_смарт-объект_копия_21_xA0_Изображение" xlink:href="701FDA7B.png" transform="translate(0 9)" display="inline" overflow="visible"/></g><g id="Векторный_смарт-объект_копия_58_xA0_Изображение_3_" class="st0"><image width="6" height="7" id="Векторный_смарт-объект_копия_58_xA0_Изображение_2_" xlink:href="701FDA7E.png" transform="translate(8 18)" display="inline" overflow="visible"/></g><g id="Векторный_смарт-объект_копия_59_xA0_Изображение_5_" class="st0"><image width="6" height="7" id="Векторный_смарт-объект_копия_59_xA0_Изображение_4_" xlink:href="701FDA7F.png" transform="translate(16 9)" display="inline" overflow="visible"/></g><g id="Векторный_смарт-объект_копия_59_xA0_Изображение_3_" class="st0"><image width="6" height="7" id="Векторный_смарт-объект_копия_59_xA0_Изображение_2_" xlink:href="701FDA7A.png" transform="translate(16 18)" display="inline" overflow="visible"/></g><g id="Векторный_смарт-объект_копия_56_xA0_Изображение_3_" class="st0"><image width="6" height="7" id="Векторный_смарт-объект_копия_56_xA0_Изображение_2_" xlink:href="701FDA75.png" transform="translate(0 18)" display="inline" overflow="visible"/></g><g id="Векторный_смарт-объект_копия_58_xA0_Изображение_1_" class="st0"><image width="6" height="7" id="Векторный_смарт-объект_копия_58_xA0_Изображение" xlink:href="701FDA76.png" transform="translate(8)" overflow="visible"/></g><g id="Векторный_смарт-объект_копия_59_xA0_Изображение_1_"><path d="M11.9 15.8v-1.6c0-.3.3-.6.6-.6h.9c0-1.4-1.5-3.5-2.4-4.6-.4.5-2.4 2.8-2.4 4.5 0 1.8 1.7 3 3.3 2.3z"/><path d="M13.4 13.5c0-1.7-2-4-2.4-4.5-1 1.1-2.5 3.1-2.4 4.6h.9c.3 0 .6.3.6.6v1.6c1.6.7 3.3-.5 3.3-2.3zm-9.5 2.3v-1.6c0-.3.3-.6.6-.6h.9C5.5 12.1 4 10.1 3 9c-.4.5-2.4 2.8-2.4 4.5 0 1.8 1.7 3 3.3 2.3z"/><path d="M5.4 13.5c0-1.7-2-4-2.4-4.5C2 10.1.5 12.1.6 13.6h.9c.3 0 .6.3.6.6v1.6c1.6.7 3.3-.5 3.3-2.3zm14.5 2.3v-1.6c0-.3.3-.6.6-.6h.9c0-1.4-1.5-3.5-2.4-4.6-.4.5-2.4 2.8-2.4 4.5 0 1.8 1.7 3 3.3 2.3z"/><path d="M21.4 13.5c0-1.7-2-4-2.4-4.5-1 1.1-2.5 3.1-2.4 4.6h.9c.3 0 .6.3.6.6v1.6c1.6.7 3.3-.5 3.3-2.3zm-9.5 11.3v-1.6c0-.3.3-.6.6-.6h.9c0-1.4-1.5-3.5-2.4-4.6-.4.5-2.4 2.8-2.4 4.5 0 1.8 1.7 3 3.3 2.3z"/><path d="M13.4 22.5c0-1.7-2-4-2.4-4.5-1 1.1-2.5 3.1-2.4 4.6h.9c.3 0 .6.3.6.6v1.6c1.6.7 3.3-.5 3.3-2.3zm-9.5 2.3v-1.6c0-.3.3-.6.6-.6h.9C5.5 21.1 4 19.1 3 18c-.4.5-2.4 2.8-2.4 4.5 0 1.8 1.7 3 3.3 2.3z"/><path d="M5.4 22.5c0-1.7-2-4-2.4-4.5C2 19.1.5 21.1.6 22.6h.9c.3 0 .6.3.6.6v1.6c1.6.7 3.3-.5 3.3-2.3zm14.5 2.3v-1.6c0-.3.3-.6.6-.6h.9c0-1.4-1.5-3.5-2.4-4.6-.4.5-2.4 2.8-2.4 4.5 0 1.8 1.7 3 3.3 2.3z"/><path d="M21.4 22.5c0-1.7-2-4-2.4-4.5-1 1.1-2.5 3.1-2.4 4.6h.9c.3 0 .6.3.6.6v1.6c1.6.7 3.3-.5 3.3-2.3z"/></g><g id="Векторный_смарт-объект_копия_56_xA0_Изображение_1_"><path d="M11.9 6.8V5.2c0-.3.3-.6.6-.6h.9C13.5 3.1 12 1.1 11 0c-.4.5-2.4 2.8-2.4 4.5 0 1.8 1.7 3 3.3 2.3z"/><path d="M13.4 4.5c0-1.7-2-4-2.4-4.5-1 1.1-2.5 3.1-2.4 4.6h.9c.3 0 .6.3.6.6v1.6c1.6.7 3.3-.5 3.3-2.3zM3.9 6.8V5.2c0-.3.3-.6.6-.6h.9C5.5 3.1 4 1.1 3 0 2.6.5.6 2.8.6 4.5c0 1.8 1.7 3 3.3 2.3z"/><path d="M5.4 4.5c0-1.7-2-4-2.4-4.5C2 1.1.5 3.1.6 4.6h.9c.3 0 .6.3.6.6v1.6c1.6.7 3.3-.5 3.3-2.3zm14.5 2.3V5.2c0-.3.3-.6.6-.6h.9C21.5 3.1 20 1.1 19 0c-.4.5-2.4 2.8-2.4 4.5 0 1.8 1.7 3 3.3 2.3z"/><path d="M21.4 4.5c0-1.7-2-4-2.4-4.5-1 1.1-2.5 3.1-2.4 4.6h.9c.3 0 .6.3.6.6v1.6c1.6.7 3.3-.5 3.3-2.3z"/></g></svg>