<svg xmlns="http://www.w3.org/2000/svg" version="1.1" id="Слой_1" x="0" y="0" xml:space="preserve" width="17" height="21"><style type="text/css" id="style2">.st1{fill:#fff}</style><path d="M8.5 0C3.8 0 0 3.7 0 8.3c0 7 7.8 12.3 8.1 12.5l.4.2.4-.2c.3-.2 8.1-5.5 8.1-12.5C17 3.7 13.2 0 8.5 0z" id="path4" fill="#ea961c"/><g id="g12" transform="translate(110.5 -243)"><circle class="st1" cx="-104.1" cy="250" r="2.1" id="circle6" fill="#fff"/><circle class="st1" cx="-100" cy="254.2" r="1.5" id="circle8" fill="#fff"/><path class="st1" d="M-98.6 246.8c-1.6 0-1.9 1.3-2.2 2.6-.3 1.5-1.2 2.8-2.5 3.5-1.2.7-2.9.4-3.7 1.7-.8 1.4.2 3.2 1.8 3.2 1.9 0 1.9-1.7 2.3-3.1.4-1.4 1.5-2.6 2.8-3.2 1.1-.5 2.5-.3 3.2-1.4 1-1.4 0-3.3-1.7-3.3z" id="path10" fill="#fff"/></g></svg>