<svg xmlns="http://www.w3.org/2000/svg" viewBox="0 0 57.26 64.04"><g data-name="Слой 2"><g data-name="Layer 1"><path d="M18.28 5.36h37.43a1.54 1.54 0 0 1 1.55 1.55V44.3a1.54 1.54 0 0 1-1.55 1.55H18.28V5.36zm27.12 32v3.1h6.2v-3.1zm0-6.2v3.1h6.2v-3.1zm-10.85 6.2v3.1h6.2v-3.1zm0-6.2v3.1h6.2v-3.1zm-10.84 6.2v3.1h6.19v-3.1zm0-6.2v3.1h6.19v-3.1zM45.4 25v3.1h6.2V25zm-10.85 0v3.1h6.2V25zm-10.84 0v3.1h6.19V25zm26.37-3.09h1.55V11H23.71v10.89h26.37z" fill-rule="evenodd" fill="#ea961c"/><path d="M4 0h8.79a4 4 0 0 1 2.81 1.17A3.93 3.93 0 0 1 16.73 4v43.24a4 4 0 0 1-1.16 2.81 4 4 0 0 1-2.81 1.16H4a4 4 0 0 1-4-4V4a4 4 0 0 1 4-4z" fill="#ea961c"/><path d="M7.11 52.07v1.15C7 57.37 6.82 63.74 16.35 64a10.72 10.72 0 0 0 5.48-1.17 10.93 10.93 0 0 0 3.5-3 20 20 0 0 1 3.38-3.59A6.14 6.14 0 0 1 31.15 55c1.65-.36 3.11.63 4.49 1.56s2.73 1.83 4.42 1.84c4 0 5.16-2.1 5.19-4.92a21.53 21.53 0 0 0-.75-4.85c-.09-.42-.19-.82-.27-1.21H41.5c.11.58.25 1.18.4 1.81a20.25 20.25 0 0 1 .68 4.23c0 1.29-.56 2.27-2.5 2.26a6.35 6.35 0 0 1-2.95-1.4c-1.84-1.24-3.79-2.55-6.54-2a8.88 8.88 0 0 0-3.51 1.76 22.65 22.65 0 0 0-3.87 4.07 8.07 8.07 0 0 1-2.63 2.31 8.16 8.16 0 0 1-4.16.86c-6.85-.21-6.75-5.11-6.66-8.05v-1.22zm18.07-39.48h24.9v7.75h-24.9z" fill="#455bd7"/></g></g></svg>