<svg xmlns="http://www.w3.org/2000/svg" width="17" height="18"><path fill="#666" d="M8.61 13.125c1.406 0 2.546 1.091 2.546 2.437 0 1.347-1.14 2.438-2.547 2.438-1.406 0-2.547-1.091-2.547-2.438 0-1.346 1.14-2.437 2.547-2.437zm5.874-9.531C15.874 3.594 17 4.685 17 6.03c0 1.346-1.126 2.438-2.516 2.438-1.39 0-2.515-1.092-2.515-2.438s1.126-2.437 2.515-2.437zM8.5 0c1.398 0 2.53 1.09 2.53 2.437 0 1.347-1.133 2.438-2.531 2.438-1.398 0-2.531-1.092-2.531-2.438S7.102 0 8.499 0zm0 6.469c1.398 0 2.531 1.09 2.531 2.437 0 1.346-1.133 2.438-2.531 2.438-1.398 0-2.531-1.092-2.531-2.438S7.102 6.47 8.499 6.47zm5.984 3.25c1.39 0 2.516 1.084 2.516 2.421 0 1.338-1.126 2.422-2.516 2.422-1.39 0-2.515-1.084-2.515-2.422 0-1.337 1.126-2.421 2.515-2.421zM2.531 3.594c1.398 0 2.531 1.091 2.531 2.437 0 1.346-1.133 2.438-2.53 2.438C1.132 8.469 0 7.377 0 6.03s1.133-2.436 2.53-2.436zm0 6.125c1.398 0 2.531 1.084 2.531 2.421 0 1.338-1.133 2.422-2.53 2.422-1.4 0-2.532-1.084-2.532-2.422 0-1.337 1.133-2.42 2.53-2.42z"/></svg>