<svg xmlns="http://www.w3.org/2000/svg" viewBox="0 0 15 14.97"><g data-name="Слой 2"><path data-name="Shape 51 copy 11" d="M7.5 15a7.43 7.43 0 0 1-4-1.17L0 15l1.17-3.51A7.49 7.49 0 1 1 7.5 15zm1.63-6.39c.5.16 1 .29 1.52.4a.4.4 0 0 1 .34.46v.3a.65.65 0 0 1-.24.54 2.67 2.67 0 0 1-.86.6 3.52 3.52 0 0 1-2.66-.8A9.06 9.06 0 0 1 5.92 9a9.06 9.06 0 0 1-1.08-1.28 3.46 3.46 0 0 1-.79-2.65 2.81 2.81 0 0 1 .59-.86.65.65 0 0 1 .54-.21h.29a.42.42 0 0 1 .47.36c.15.59.26 1 .41 1.5.06.2 0 .25-.17.37l-.26.19a.36.36 0 0 0-.19.47 5.8 5.8 0 0 0 1 1.34 5.56 5.56 0 0 0 1.34 1 .36.36 0 0 0 .5-.14V9l.19-.26a.29.29 0 0 1 .36-.17z" fill="#333" fill-rule="evenodd"/></g></svg>