<svg xmlns="http://www.w3.org/2000/svg" viewBox="0 0 13.01 11"><g data-name="Слой 2"><path data-name="Твиттер copy 21" d="M6.26 3.42S6.5.07 8.83 0c1.9 0 2.27.84 2.27.84A4.38 4.38 0 0 0 12.65 0 2.56 2.56 0 0 1 12 1.53a1.62 1.62 0 0 0 1-.36 2 2 0 0 1-1 1.24 9.71 9.71 0 0 1-1.6 5.92C8.67 10.8 5.58 11 3.88 11A9.07 9.07 0 0 1 0 9.88s2.58 0 3.73-.81A18.44 18.44 0 0 1 1.19 7a2.85 2.85 0 0 0 .92-.09A14.2 14.2 0 0 1 0 4a3.52 3.52 0 0 0 1 0S-.52 1.58.19 0c0 0 2.54 3.21 6.07 3.42z" fill="#fff" fill-rule="evenodd"/></g></svg>