<svg xmlns="http://www.w3.org/2000/svg" viewBox="0 0 7.23 13.03"><g data-name="Слой 2"><path data-name="Одноклассники copy 26" d="M3.62 0A3.5 3.5 0 1 1 .1 3.5 3.5 3.5 0 0 1 3.62 0zm0 2a1.51 1.51 0 0 1 1.5 1.53A1.52 1.52 0 1 1 3.62 2zm0 6a6 6 0 0 0 2-.36 5.9 5.9 0 0 1 1.08-.55c.22 0 .58.38.52 1.32 0 .54-1 .76-1.36 1a2.43 2.43 0 0 1-.73.25l1.06 1.13A2.62 2.62 0 0 1 7.14 12a1.31 1.31 0 0 1-1 1 4.33 4.33 0 0 1-1.4-1.12l-1.11-1.04s-.55.49-1.12 1.05A4.42 4.42 0 0 1 1.14 13a1.43 1.43 0 0 1-1.06-1.13 6.77 6.77 0 0 1 1.24-1.48 8.18 8.18 0 0 1 .8-.76 1.85 1.85 0 0 1-.64-.21C1 9.15 0 8.87 0 8.38s.16-1.3.62-1.3a6.07 6.07 0 0 1 1.12.54A4.35 4.35 0 0 0 3.62 8z" fill="#333" fill-rule="evenodd"/></g></svg>