<?xml version="1.0" encoding="utf-8"?>
<!-- Generator: Adobe Illustrator 23.0.6, SVG Export Plug-In . SVG Version: 6.00 Build 0)  -->
<svg version="1.1" id="Слой_1" xmlns="http://www.w3.org/2000/svg" xmlns:xlink="http://www.w3.org/1999/xlink" x="0px" y="0px"
	 width="73.7px" height="74.8px" viewBox="0 0 73.7 74.8" style="enable-background:new 0 0 73.7 74.8;" xml:space="preserve">
<style type="text/css">
	.st0{fill:#F7F8F9;}
	.st1{fill:#EA961C;}
</style>
<circle class="st0" cx="21.7" cy="22" r="14.6"/>
<circle class="st1" cx="49.2" cy="50.2" r="9.9"/>
<path class="st0" d="M59.3,0c-11,0-13.2,8.9-15,17.5c-2,10.1-7.9,18.8-16.9,23.9C19.3,46,7.3,44,2.1,52.7
	c-5.7,9.5,1.2,22.1,12.4,22.1c13.2,0,13-11.9,15.9-21.2C33.2,44,40.6,36.1,49.6,32c7.5-3.4,17-1.9,21.9-9.6C77.5,12.9,70.6,0,59.3,0
	z"/>
</svg>
