<svg xmlns="http://www.w3.org/2000/svg" viewBox="0 0 17.5 8.64"><defs><style>.cls-1{fill:#d8dee0;}</style></defs><title>about-many</title><g id="Слой_2" data-name="Слой 2"><g id="Capa_1" data-name="Capa 1"><path class="cls-1" d="M13.18,0a4.25,4.25,0,0,0-3,1.25L8.75,2.59,7.38,1.27a4.31,4.31,0,0,0-6.11,0,4.3,4.3,0,0,0,0,6.1,4.31,4.31,0,0,0,6.09,0L8.75,6.05l1.38,1.32a4.31,4.31,0,0,0,6.11,0A4.32,4.32,0,0,0,13.18,0ZM5.61,5.61A1.89,1.89,0,0,1,3,5.61,1.85,1.85,0,0,1,2.5,4.32,1.83,1.83,0,0,1,4.32,2.5a1.85,1.85,0,0,1,1.31.55L7,4.32Zm8.86,0a1.86,1.86,0,0,1-2.59,0L10.56,4.32,11.89,3a1.87,1.87,0,0,1,2.58,0,1.83,1.83,0,0,1,0,2.58Z"/></g></g></svg>