<?xml version="1.0" encoding="UTF-8" standalone="no"?>
<!-- Generator: Adobe Illustrator 22.0.0, SVG Export Plug-In . SVG Version: 6.00 Build 0)  -->

<svg
   xmlns:dc="http://purl.org/dc/elements/1.1/"
   xmlns:cc="http://creativecommons.org/ns#"
   xmlns:rdf="http://www.w3.org/1999/02/22-rdf-syntax-ns#"
   xmlns:svg="http://www.w3.org/2000/svg"
   xmlns="http://www.w3.org/2000/svg"
   xmlns:xlink="http://www.w3.org/1999/xlink"
   xmlns:sodipodi="http://sodipodi.sourceforge.net/DTD/sodipodi-0.dtd"
   xmlns:inkscape="http://www.inkscape.org/namespaces/inkscape"
   version="1.1"
   id="Слой_1"
   x="0px"
   y="0px"
   viewBox="0 0 165.9 89.6"
   style="enable-background:new 0 0 165.9 89.6;"
   xml:space="preserve"
   sodipodi:docname="footer-logo.svg"
   inkscape:version="0.92.3 (2405546, 2018-03-11)"><metadata
   id="metadata71"><rdf:RDF><cc:Work
       rdf:about=""><dc:format>image/svg+xml</dc:format><dc:type
         rdf:resource="http://purl.org/dc/dcmitype/StillImage" /></cc:Work></rdf:RDF></metadata><defs
   id="defs69" /><sodipodi:namedview
   pagecolor="#ffffff"
   bordercolor="#666666"
   borderopacity="1"
   objecttolerance="10"
   gridtolerance="10"
   guidetolerance="10"
   inkscape:pageopacity="0"
   inkscape:pageshadow="2"
   inkscape:window-width="1920"
   inkscape:window-height="1026"
   id="namedview67"
   showgrid="false"
   inkscape:zoom="4.4243522"
   inkscape:cx="86.024643"
   inkscape:cy="24.108372"
   inkscape:window-x="0"
   inkscape:window-y="0"
   inkscape:window-maximized="1"
   inkscape:current-layer="g64" />
<style
   type="text/css"
   id="style2">
	.st0{clip-path:url(#SVGID_2_);fill:#333333;}
	.st1{clip-path:url(#SVGID_2_);fill:#EA961C;}
	.st2{clip-path:url(#SVGID_2_);fill:#455BD7;}
</style>
<g
   id="g64">
	<defs
   id="defs5">
		<rect
   id="SVGID_1_"
   y="0"
   width="165.9"
   height="89.6" />
	</defs>
	<clipPath
   id="SVGID_2_">
		<use
   xlink:href="#SVGID_1_"
   style="overflow:visible;"
   id="use7" />
	</clipPath>
	<path
   class="st0"
   d="M0,34.4c0-1.9,0.4-3.4,1.3-4.4c0.9-1,2.3-1.5,4.2-1.5c1.9,0,3.3,0.5,4.2,1.5c0.9,1,1.4,2.5,1.4,4.4v18.7   c0,1.9-0.5,3.4-1.4,4.4c-0.9,1-2.3,1.5-4.2,1.5c-1.9,0-3.3-0.5-4.2-1.5c-0.9-1-1.3-2.5-1.3-4.4V34.4z M7.2,34.6   c0-0.6-0.1-1.1-0.3-1.5c-0.2-0.3-0.7-0.5-1.3-0.5c-0.6,0-1.1,0.2-1.3,0.5c-0.2,0.3-0.4,0.8-0.4,1.5V53c0,0.6,0.1,1.1,0.4,1.4   C4.5,54.8,4.9,55,5.6,55c0.6,0,1.1-0.2,1.3-0.5c0.2-0.3,0.3-0.8,0.3-1.5V34.6z"
   clip-path="url(#SVGID_2_)"
   id="path10"
   style="fill:#424d71;fill-opacity:1" />
	<path
   class="st0"
   d="M29.5,57.5c-0.1-0.2-0.1-0.4-0.2-0.6c-0.1-0.2-0.1-0.5-0.2-0.8c-0.1-0.4-0.2-0.8-0.4-1.4   c-0.2-0.6-0.4-1.3-0.6-2.3c-0.3-1-0.6-2.2-1-3.6c-0.4-1.4-0.9-3.2-1.4-5.2v1.8c0,0.6,0,1.2,0,1.8c0,0.6,0,1.3,0,2v2.3v5.4   c0,0.6-0.2,1.1-0.5,1.4c-0.4,0.4-0.8,0.5-1.4,0.5c-0.6,0-1.1-0.2-1.4-0.5c-0.4-0.3-0.5-0.8-0.5-1.4V30.7c0-0.6,0.2-1.1,0.5-1.4   c0.4-0.4,0.8-0.5,1.4-0.5c0.6,0,1.1,0.2,1.4,0.5c0.3,0.4,0.5,0.8,0.5,1.4v4.1v2c0,0.6,0,1.2,0,1.7c0,0.5,0,1,0,1.6v1.6   c0.5-1.6,1.1-3.4,1.8-5.5c0.7-2.1,1.4-4.1,2.2-6.1c0.2-0.4,0.4-0.8,0.7-1c0.3-0.2,0.7-0.3,1-0.3c0.5,0,1,0.2,1.4,0.6   c0.4,0.4,0.6,0.8,0.6,1.3c0,0.2,0,0.3-0.1,0.5c0,0.1-0.2,0.4-0.3,0.9l-3.6,10l3.9,13.5c0.2,0.5,0.3,0.8,0.3,1c0,0.2,0,0.3,0,0.4   c0,0.6-0.2,1.1-0.7,1.4c-0.5,0.4-1,0.6-1.5,0.6c-0.4,0-0.7-0.1-1.1-0.3C29.9,58.3,29.6,58,29.5,57.5"
   clip-path="url(#SVGID_2_)"
   id="path12"
   style="fill:#424d71;fill-opacity:1" />
	<path
   class="st0"
   d="M53.9,57.3c0,1.1-0.5,1.6-1.5,1.6c-0.5,0-0.9-0.1-1.3-0.4c-0.4-0.3-0.6-0.8-0.8-1.5c-0.4,0.7-0.8,1.2-1.3,1.5   c-0.5,0.4-1.2,0.5-2.1,0.5c-2.6,0-3.9-1.6-3.9-4.7V50c0-1.4,0.2-2.6,0.5-3.5c0.4-0.9,0.9-1.7,1.5-2.4c0.7-0.7,1.4-1.2,2.3-1.6   c0.9-0.4,1.8-0.9,2.8-1.3v-6.7c0-0.6-0.1-1.1-0.4-1.4c-0.2-0.3-0.7-0.5-1.3-0.5c-0.6,0-1.1,0.2-1.3,0.5c-0.2,0.3-0.3,0.8-0.3,1.4   v4.7c0,0.5-0.2,1-0.5,1.3c-0.3,0.3-0.8,0.5-1.3,0.5c-0.5,0-1-0.2-1.3-0.5c-0.3-0.3-0.5-0.7-0.5-1.3v-4.8c0-3.9,1.7-5.8,5.2-5.8   c3.5,0,5.3,1.9,5.3,5.8V56c0,0.3,0,0.5,0,0.7C53.9,56.9,53.9,57.1,53.9,57.3 M50.1,44.3c-0.8,0.3-1.4,0.6-1.8,1   c-0.4,0.4-0.8,0.8-1,1.3c-0.2,0.5-0.3,1-0.4,1.7c0,0.6,0,1.3,0,2.1v3.1c0,1.2,0.5,1.8,1.6,1.8c0.4,0,0.8-0.1,1-0.3   c0.2-0.2,0.4-0.5,0.6-1V44.3z"
   clip-path="url(#SVGID_2_)"
   id="path14"
   style="fill:#424d71;fill-opacity:1" />
	<path
   class="st1"
   d="M94.3,22c0,8.1-6.5,14.6-14.6,14.6c-8.1,0-14.6-6.5-14.6-14.6S71.7,7.4,79.7,7.4C87.8,7.4,94.3,13.9,94.3,22"
   clip-path="url(#SVGID_2_)"
   id="path16"
   style="fill:#424d71;fill-opacity:1" />
	<path
   class="st2"
   d="M117.2,50.2c0,5.5-4.4,9.9-9.9,9.9c-5.5,0-9.9-4.4-9.9-9.9s4.4-9.9,9.9-9.9C112.7,40.3,117.2,44.7,117.2,50.2"
   clip-path="url(#SVGID_2_)"
   id="path18"
   style="fill:#424d71;fill-opacity:1" />
	<path
   class="st2"
   d="M117.3,0c-11,0-13.2,8.9-15,17.5c-2,10.1-7.9,18.8-16.9,23.9c-8.1,4.6-20,2.6-25.3,11.3   c-5.7,9.5,1.2,22.1,12.4,22.1c13.2,0,13-11.9,15.9-21.2C91.3,44,98.6,36.1,107.7,32c7.5-3.4,17-1.9,21.9-9.6   C135.5,12.9,128.6,0,117.3,0"
   clip-path="url(#SVGID_2_)"
   id="path20"
   style="fill:#424d71;fill-opacity:1" />
	<path
   class="st0"
   d="M128.4,58.4c-0.4,0.3-0.8,0.5-1.4,0.5c-0.5,0-1-0.2-1.3-0.5c-0.3-0.3-0.5-0.8-0.5-1.3V30.7   c0-0.6,0.2-1.1,0.5-1.5c0.4-0.4,0.9-0.6,1.5-0.6c0.6,0,1.1,0.2,1.5,0.6c0.4,0.4,0.5,0.9,0.5,1.5v16.1l3.5-16.2   c0.1-0.6,0.4-1,0.8-1.4c0.4-0.4,0.9-0.6,1.6-0.6c0.6,0,1.1,0.2,1.5,0.6c0.4,0.4,0.5,0.8,0.5,1.4v26.3c0,0.6-0.2,1.1-0.5,1.4   c-0.4,0.4-0.8,0.5-1.4,0.5c-0.6,0-1.1-0.2-1.4-0.5c-0.4-0.3-0.5-0.8-0.5-1.4V39.1l-4.1,18C129.1,57.7,128.8,58.1,128.4,58.4"
   clip-path="url(#SVGID_2_)"
   id="path22"
   style="fill:#424d71;fill-opacity:1" />
	<path
   class="st0"
   d="M165.4,58.4c-0.4,0.4-0.8,0.5-1.4,0.5c-0.6,0-1.1-0.2-1.4-0.5c-0.4-0.4-0.5-0.8-0.5-1.4v-6.8c0-2,0-4,0.1-6   c0-2,0.1-3.9,0.2-5.9l-3.2,18.8c-0.1,0.5-0.3,1-0.7,1.3c-0.4,0.3-0.8,0.5-1.4,0.5c-0.6,0-1.1-0.2-1.4-0.5c-0.4-0.3-0.6-0.8-0.7-1.3   l-3.1-18.8c0.1,1.9,0.1,3.9,0.2,5.9c0,2,0.1,3.9,0.1,6v6.8c0,0.6-0.2,1.1-0.5,1.4c-0.4,0.4-0.8,0.5-1.4,0.5c-0.6,0-1.1-0.2-1.4-0.5   c-0.4-0.4-0.5-0.8-0.5-1.4V31.6c0-0.8,0.2-1.4,0.7-1.9c0.5-0.5,1.2-0.7,2.3-0.7c1,0,1.7,0.2,2.2,0.6c0.5,0.4,0.8,1,0.9,1.6   l2.8,19.7l3-19.7c0.1-0.7,0.4-1.2,0.9-1.6c0.5-0.4,1.2-0.6,2.2-0.6c1.1,0,1.8,0.2,2.3,0.7c0.5,0.5,0.7,1.1,0.7,1.9v25.3   C165.9,57.5,165.7,58,165.4,58.4"
   clip-path="url(#SVGID_2_)"
   id="path24"
   style="fill:#424d71;fill-opacity:1" />
	<polygon
   class="st0"
   points="4.7,87 4.7,80.7 0.7,80.7 0.7,87 0,87 0,80 5.4,80 5.4,87  "
   clip-path="url(#SVGID_2_)"
   id="polygon26"
   style="fill:#424d71;fill-opacity:1" />
	<path
   class="st0"
   d="M10,85.8v3.8H9.2V80H10v1.1c0.5-0.7,1.4-1.3,2.4-1.3c1.9,0,3.1,1.4,3.1,3.6c0,2.2-1.3,3.7-3.1,3.7   C11.4,87.1,10.5,86.6,10,85.8 M14.7,83.5c0-1.7-0.9-3-2.4-3c-1,0-1.9,0.6-2.3,1.2v3.4c0.4,0.7,1.3,1.3,2.3,1.3   C13.8,86.5,14.7,85.2,14.7,83.5"
   clip-path="url(#SVGID_2_)"
   id="path28"
   style="fill:#424d71;fill-opacity:1" />
	<path
   class="st0"
   d="M18.4,83.5c0-2,1.3-3.6,3.3-3.6c2.1,0,3.4,1.6,3.4,3.6c0,2-1.3,3.7-3.4,3.7C19.7,87.1,18.4,85.5,18.4,83.5    M24.3,83.5c0-1.5-0.9-3-2.6-3c-1.6,0-2.5,1.4-2.5,3c0,1.6,0.9,3,2.5,3C23.4,86.5,24.3,85,24.3,83.5"
   clip-path="url(#SVGID_2_)"
   id="path30"
   style="fill:#424d71;fill-opacity:1" />
	<polygon
   class="st0"
   points="34.3,87 34.3,81 31.9,87 31.7,87 29.2,81 29.2,87 28.5,87 28.5,80 29.5,80 31.8,85.7 34,80 35.1,80    35.1,87  "
   clip-path="url(#SVGID_2_)"
   id="polygon32"
   style="fill:#424d71;fill-opacity:1" />
	<path
   class="st0"
   d="M39.6,80v2.8h2.7c1.4,0,2.1,1,2.1,2.1S43.7,87,42.3,87h-3.5v-7H39.6z M39.6,83.5v2.8h2.7   c0.9,0,1.4-0.6,1.4-1.4s-0.5-1.4-1.4-1.4H39.6z M45.6,80h0.8v7h-0.8V80z"
   clip-path="url(#SVGID_2_)"
   id="path34"
   style="fill:#424d71;fill-opacity:1" />
	<polygon
   class="st0"
   points="59,80 59,87 50.1,87 50.1,80 50.9,80 50.9,86.3 54.2,86.3 54.2,80 54.9,80 54.9,86.3 58.3,86.3    58.3,80  "
   clip-path="url(#SVGID_2_)"
   id="polygon36"
   style="fill:#424d71;fill-opacity:1" />
	<path
   class="st0"
   d="M61.9,86.5c0.7,0,1.2-0.8,1.5-3l0.5-3.5h4.4v7h-0.8v-6.3h-3l-0.4,2.9c-0.3,2.6-1,3.6-2.2,3.6V86.5z"
   clip-path="url(#SVGID_2_)"
   id="path38"
   style="fill:#424d71;fill-opacity:1" />
	<path
   class="st0"
   d="M71.6,83.5c0-2,1.4-3.6,3.4-3.6c2.1,0,3.3,1.7,3.3,3.7v0.2h-5.8c0.1,1.5,1.1,2.8,2.7,2.8c0.9,0,1.7-0.3,2.3-1   l0.4,0.5c-0.7,0.7-1.6,1.1-2.7,1.1C73,87.1,71.6,85.6,71.6,83.5 M74.9,80.5c-1.6,0-2.5,1.4-2.5,2.7h5.1   C77.5,82,76.7,80.5,74.9,80.5"
   clip-path="url(#SVGID_2_)"
   id="path40"
   style="fill:#424d71;fill-opacity:1" />
	<polygon
   class="st0"
   points="81.6,87 81.6,80 82.4,80 82.4,83 86.3,83 86.3,80 87.1,80 87.1,87 86.3,87 86.3,83.7 82.4,83.7    82.4,87  "
   clip-path="url(#SVGID_2_)"
   id="polygon42"
   style="fill:#424d71;fill-opacity:1" />
	<polygon
   class="st0"
   points="90.8,87 90.8,80 91.6,80 91.6,83 95.5,83 95.5,80 96.3,80 96.3,87 95.5,87 95.5,83.7 91.6,83.7    91.6,87  "
   clip-path="url(#SVGID_2_)"
   id="polygon44"
   style="fill:#424d71;fill-opacity:1" />
	<path
   class="st0"
   d="M104.5,87v-0.8c-0.6,0.7-1.4,1-2.4,1c-1.2,0-2.4-0.8-2.4-2.3c0-1.5,1.2-2.3,2.4-2.3c1,0,1.8,0.3,2.4,1v-1.4   c0-1-0.8-1.6-1.9-1.6c-0.9,0-1.5,0.3-2.2,1L100,81c0.7-0.8,1.5-1.2,2.7-1.2c1.4,0,2.5,0.7,2.5,2.2V87H104.5z M104.5,85.6v-1.5   c-0.5-0.6-1.3-1-2.1-1c-1.2,0-1.9,0.7-1.9,1.7c0,1,0.7,1.7,1.9,1.7C103.2,86.5,104,86.2,104.5,85.6"
   clip-path="url(#SVGID_2_)"
   id="path46"
   style="fill:#424d71;fill-opacity:1" />
	<path
   class="st0"
   d="M108.8,87l1.9-2.9c-1.1-0.1-1.9-0.9-1.9-2c0-1.2,0.8-2.1,2.1-2.1h3.5v7h-0.8v-2.8h-2.1l-1.9,2.8H108.8z    M113.7,83.5v-2.8H111c-0.9,0-1.4,0.6-1.4,1.4c0,0.8,0.5,1.4,1.4,1.4H113.7z"
   clip-path="url(#SVGID_2_)"
   id="path48"
   style="fill:#424d71;fill-opacity:1" />
	<polygon
   class="st0"
   points="127.9,87 125.6,83.9 123.3,87 122.4,87 125.2,83.4 122.6,80 123.5,80 125.6,82.9 127.8,80 128.7,80    126.1,83.4 128.8,87  "
   clip-path="url(#SVGID_2_)"
   id="polygon50"
   style="fill:#424d71;fill-opacity:1" />
	<polygon
   class="st0"
   points="131.7,87 131.7,80 132.4,80 132.4,85.8 136.4,80 137.1,80 137.1,87 136.4,87 136.4,81.1 132.4,87  "
   clip-path="url(#SVGID_2_)"
   id="polygon52"
   style="fill:#424d71;fill-opacity:1" />
	<polygon
   class="st0"
   points="146.7,87 146.7,81 144.3,87 144.1,87 141.7,81 141.7,87 140.9,87 140.9,80 141.9,80 144.2,85.7    146.4,80 147.5,80 147.5,87  "
   clip-path="url(#SVGID_2_)"
   id="polygon54"
   style="fill:#424d71;fill-opacity:1" />
	<polygon
   class="st0"
   points="151.3,87 151.3,80 152,80 152,85.8 156,80 156.7,80 156.7,87 156,87 156,81.1 152,87  "
   clip-path="url(#SVGID_2_)"
   id="polygon56"
   style="fill:#424d71;fill-opacity:1" />
	<path
   class="st0"
   d="M160.3,87l1.9-2.9c-1.1-0.1-1.9-0.9-1.9-2c0-1.2,0.8-2.1,2.1-2.1h3.5v7h-0.8v-2.8H163l-1.9,2.8H160.3z    M165.1,83.5v-2.8h-2.6c-0.9,0-1.4,0.6-1.4,1.4c0,0.8,0.5,1.4,1.4,1.4H165.1z"
   clip-path="url(#SVGID_2_)"
   id="path58"
   style="fill:#424d71;fill-opacity:1" />
	<rect
   x="0"
   y="70"
   class="st0"
   width="53.9"
   height="0.3"
   clip-path="url(#SVGID_2_)"
   id="rect60"
   style="fill:#424d71;fill-opacity:1" />
	<rect
   x="92.5"
   y="70"
   class="st0"
   width="73.4"
   height="0.3"
   clip-path="url(#SVGID_2_)"
   id="rect62"
   style="fill:#424d71;fill-opacity:1" />
</g>
</svg>