<?xml version="1.0" encoding="utf-8"?>
<!-- Generator: Adobe Illustrator 22.0.0, SVG Export Plug-In . SVG Version: 6.00 Build 0)  -->
<svg version="1.1" id="Слой_1" xmlns="http://www.w3.org/2000/svg" xmlns:xlink="http://www.w3.org/1999/xlink" x="0px" y="0px"
	 viewBox="0 0 297.7 74.8" style="enable-background:new 0 0 297.7 74.8;" xml:space="preserve">
<style type="text/css">
	.st0{clip-path:url(#SVGID_2_);fill:#333333;}
	.st1{clip-path:url(#SVGID_2_);fill:#EA961C;}
	.st2{clip-path:url(#SVGID_2_);fill:#455BD7;}
</style>
<g>
	<defs>
		<rect id="SVGID_1_" y="0" width="297.7" height="74.8"/>
	</defs>
	<clipPath id="SVGID_2_">
		<use xlink:href="#SVGID_1_"  style="overflow:visible;"/>
	</clipPath>
	<path class="st0" d="M0,34.4c0-1.9,0.4-3.4,1.3-4.4c0.9-1,2.3-1.5,4.2-1.5c1.9,0,3.3,0.5,4.2,1.5c0.9,1,1.4,2.5,1.4,4.4v18.7
		c0,1.9-0.5,3.4-1.4,4.4c-0.9,1-2.3,1.5-4.2,1.5c-1.9,0-3.3-0.5-4.2-1.5c-0.9-1-1.3-2.5-1.3-4.4V34.4z M7.2,34.6
		c0-0.6-0.1-1.1-0.3-1.5c-0.2-0.3-0.7-0.5-1.3-0.5c-0.6,0-1.1,0.2-1.3,0.5c-0.2,0.3-0.4,0.8-0.4,1.5V53c0,0.6,0.1,1.1,0.4,1.4
		C4.5,54.8,4.9,55,5.6,55c0.6,0,1.1-0.2,1.3-0.5c0.2-0.3,0.3-0.8,0.3-1.5V34.6z"/>
	<path class="st0" d="M29.5,57.5c-0.1-0.2-0.1-0.4-0.2-0.6c-0.1-0.2-0.1-0.5-0.2-0.8c-0.1-0.3-0.2-0.8-0.4-1.4
		c-0.2-0.6-0.4-1.3-0.6-2.3c-0.3-1-0.6-2.2-1-3.6c-0.4-1.4-0.9-3.2-1.4-5.2v1.8c0,0.6,0,1.2,0,1.8c0,0.6,0,1.3,0,2v2.3v5.4
		c0,0.6-0.2,1.1-0.5,1.4c-0.4,0.4-0.8,0.5-1.4,0.5c-0.6,0-1.1-0.2-1.4-0.5c-0.4-0.3-0.5-0.8-0.5-1.4V30.7c0-0.6,0.2-1.1,0.5-1.4
		c0.4-0.4,0.8-0.5,1.4-0.5c0.6,0,1.1,0.2,1.4,0.5c0.4,0.4,0.5,0.8,0.5,1.4v4.1v2c0,0.6,0,1.2,0,1.7c0,0.5,0,1,0,1.6v1.6
		c0.5-1.6,1.1-3.4,1.8-5.5c0.7-2.1,1.4-4.1,2.2-6.1c0.2-0.4,0.4-0.8,0.7-1c0.3-0.2,0.7-0.3,1-0.3c0.5,0,1,0.2,1.4,0.6
		c0.4,0.4,0.6,0.8,0.6,1.3c0,0.2,0,0.3-0.1,0.5c0,0.1-0.2,0.4-0.3,0.9l-3.6,10l3.9,13.5c0.2,0.5,0.3,0.8,0.3,1c0,0.2,0,0.3,0,0.4
		c0,0.6-0.2,1.1-0.7,1.4c-0.5,0.4-1,0.6-1.5,0.6c-0.4,0-0.8-0.1-1.1-0.3C29.9,58.3,29.6,58,29.5,57.5"/>
	<path class="st0" d="M53.9,57.3c0,1.1-0.5,1.6-1.5,1.6c-0.5,0-0.9-0.1-1.3-0.4c-0.4-0.3-0.6-0.8-0.8-1.5c-0.4,0.7-0.8,1.2-1.3,1.5
		c-0.5,0.4-1.2,0.5-2.1,0.5c-2.6,0-3.9-1.6-3.9-4.7V50c0-1.4,0.2-2.6,0.5-3.5c0.4-0.9,0.9-1.7,1.5-2.4c0.7-0.7,1.4-1.2,2.3-1.6
		c0.9-0.4,1.8-0.9,2.8-1.3v-6.7c0-0.6-0.1-1.1-0.4-1.4c-0.2-0.3-0.7-0.5-1.3-0.5c-0.6,0-1.1,0.2-1.3,0.5c-0.2,0.3-0.3,0.8-0.3,1.4
		v4.7c0,0.5-0.2,1-0.5,1.3c-0.3,0.3-0.8,0.5-1.3,0.5c-0.5,0-1-0.2-1.3-0.5c-0.3-0.3-0.5-0.7-0.5-1.3v-4.8c0-3.9,1.7-5.8,5.2-5.8
		c3.5,0,5.3,1.9,5.3,5.8V56c0,0.3,0,0.5,0,0.7C53.9,56.9,53.9,57.1,53.9,57.3 M50.1,44.3c-0.8,0.3-1.4,0.6-1.8,1
		c-0.4,0.4-0.8,0.8-1,1.3c-0.2,0.5-0.3,1-0.4,1.7c0,0.6,0,1.3,0,2.1v3.1c0,1.2,0.5,1.8,1.6,1.8c0.4,0,0.8-0.1,1-0.3
		c0.2-0.2,0.4-0.5,0.6-1V44.3z"/>
	<path class="st1" d="M94.3,22c0,8.1-6.5,14.6-14.6,14.6c-8.1,0-14.6-6.5-14.6-14.6S71.7,7.4,79.7,7.4C87.8,7.4,94.3,13.9,94.3,22"
		/>
	<path class="st2" d="M117.2,50.2c0,5.5-4.4,9.9-9.9,9.9c-5.5,0-9.9-4.4-9.9-9.9s4.4-9.9,9.9-9.9C112.7,40.3,117.2,44.7,117.2,50.2"
		/>
	<path class="st2" d="M117.3,0c-11,0-13.2,8.9-15,17.5c-2,10.1-7.9,18.8-16.9,23.9c-8.1,4.6-20,2.6-25.3,11.3
		c-5.7,9.5,1.2,22.1,12.4,22.1c13.2,0,13-11.9,15.9-21.2C91.3,44,98.6,36.1,107.7,32c7.5-3.4,17-1.9,21.9-9.6
		C135.5,12.9,128.6,0,117.3,0"/>
	<path class="st0" d="M128.4,58.4c-0.4,0.3-0.8,0.5-1.4,0.5c-0.5,0-1-0.2-1.3-0.5c-0.3-0.3-0.5-0.8-0.5-1.3V30.7
		c0-0.6,0.2-1.1,0.5-1.5c0.4-0.4,0.9-0.5,1.5-0.5c0.6,0,1.1,0.2,1.5,0.5c0.4,0.4,0.5,0.9,0.5,1.5v16.1l3.5-16.2
		c0.1-0.6,0.4-1,0.8-1.4c0.4-0.4,0.9-0.5,1.6-0.5c0.6,0,1.1,0.2,1.5,0.5c0.4,0.4,0.5,0.8,0.5,1.4v26.3c0,0.6-0.2,1.1-0.5,1.4
		c-0.4,0.4-0.8,0.5-1.4,0.5c-0.6,0-1.1-0.2-1.4-0.5c-0.4-0.4-0.5-0.8-0.5-1.4V39.1l-4.1,18C129.1,57.7,128.8,58.1,128.4,58.4"/>
	<path class="st0" d="M165.4,58.4c-0.4,0.4-0.8,0.5-1.4,0.5c-0.6,0-1.1-0.2-1.4-0.5c-0.4-0.4-0.5-0.8-0.5-1.4v-6.8c0-2,0-4,0.1-6
		c0-2,0.1-3.9,0.2-5.9l-3.2,18.8c-0.1,0.5-0.3,1-0.7,1.3c-0.4,0.3-0.8,0.5-1.4,0.5c-0.6,0-1.1-0.2-1.4-0.5c-0.4-0.3-0.6-0.8-0.7-1.3
		l-3.1-18.8c0.1,1.9,0.1,3.9,0.2,5.9c0,2,0.1,3.9,0.1,6v6.8c0,0.6-0.2,1.1-0.5,1.4c-0.4,0.4-0.8,0.5-1.4,0.5c-0.6,0-1.1-0.2-1.4-0.5
		c-0.4-0.4-0.5-0.8-0.5-1.4V31.6c0-0.8,0.2-1.4,0.7-1.9c0.5-0.5,1.2-0.7,2.3-0.7c1,0,1.7,0.2,2.2,0.6c0.5,0.4,0.8,1,0.9,1.6
		l2.8,19.7l3-19.7c0.1-0.7,0.4-1.2,0.9-1.6c0.5-0.4,1.2-0.6,2.2-0.6c1.1,0,1.8,0.2,2.3,0.7c0.5,0.5,0.7,1.1,0.7,1.9v25.3
		C165.9,57.5,165.7,58,165.4,58.4"/>
	<polygon class="st0" points="200,38.8 200,32.3 195.9,32.3 195.9,38.8 195.1,38.8 195.1,31.6 200.8,31.6 200.8,38.8 	"/>
	<path class="st0" d="M204,37.6v3.9h-0.8v-10h0.8v1.1c0.5-0.7,1.4-1.3,2.5-1.3c1.9,0,3.2,1.5,3.2,3.8c0,2.3-1.3,3.8-3.2,3.8
		C205.5,39,204.6,38.5,204,37.6 M208.9,35.2c0-1.8-0.9-3.1-2.5-3.1c-1,0-2,0.6-2.4,1.3V37c0.4,0.7,1.4,1.3,2.4,1.3
		C208,38.3,208.9,36.9,208.9,35.2"/>
	<path class="st0" d="M211.3,35.2c0-2.1,1.4-3.8,3.5-3.8c2.1,0,3.5,1.7,3.5,3.8c0,2.1-1.4,3.8-3.5,3.8
		C212.6,39,211.3,37.3,211.3,35.2 M217.4,35.2c0-1.6-0.9-3.1-2.7-3.1c-1.7,0-2.6,1.5-2.6,3.1c0,1.6,1,3.1,2.6,3.1
		C216.5,38.3,217.4,36.8,217.4,35.2"/>
	<polygon class="st0" points="226.3,38.8 226.3,32.6 223.8,38.8 223.6,38.8 221,32.6 221,38.8 220.3,38.8 220.3,31.6 221.3,31.6 
		223.7,37.4 226,31.6 227.1,31.6 227.1,38.8 	"/>
	<path class="st0" d="M230.3,31.6v3h2.8c1.4,0,2.2,1,2.2,2.1c0,1.2-0.8,2.1-2.2,2.1h-3.6v-7.2H230.3z M230.3,35.2v2.9h2.8
		c0.9,0,1.4-0.6,1.4-1.4c0-0.8-0.5-1.5-1.4-1.5H230.3z M236.6,31.6h0.8v7.2h-0.8V31.6z"/>
	<polygon class="st0" points="249,31.6 249,38.8 239.8,38.8 239.8,31.6 240.6,31.6 240.6,38.1 244,38.1 244,31.6 244.8,31.6 
		244.8,38.1 248.2,38.1 248.2,31.6 	"/>
	<path class="st0" d="M250.5,38.3c0.7,0,1.2-0.8,1.5-3.1l0.5-3.6h4.6v7.2h-0.8v-6.6h-3.1l-0.4,3c-0.4,2.7-1.1,3.7-2.3,3.7V38.3z"/>
	<path class="st0" d="M259.1,35.2c0-2.1,1.5-3.8,3.5-3.8c2.2,0,3.4,1.8,3.4,3.8v0.2H260c0.1,1.6,1.1,2.9,2.8,2.9
		c0.9,0,1.8-0.3,2.4-1l0.4,0.5c-0.7,0.8-1.6,1.2-2.8,1.2C260.6,39,259.1,37.4,259.1,35.2 M262.6,32.1c-1.7,0-2.6,1.5-2.6,2.8h5.3
		C265.2,33.6,264.4,32.1,262.6,32.1"/>
	<polygon class="st0" points="268.1,38.8 268.1,31.6 268.8,31.6 268.8,34.7 272.9,34.7 272.9,31.6 273.7,31.6 273.7,38.8 
		272.9,38.8 272.9,35.4 268.8,35.4 268.8,38.8 	"/>
	<polygon class="st0" points="276.2,38.8 276.2,31.6 276.9,31.6 276.9,34.7 281,34.7 281,31.6 281.8,31.6 281.8,38.8 281,38.8 
		281,35.4 276.9,35.4 276.9,38.8 	"/>
	<path class="st0" d="M288.9,38.8V38c-0.6,0.7-1.5,1-2.5,1c-1.2,0-2.5-0.9-2.5-2.4c0-1.6,1.3-2.4,2.5-2.4c1,0,1.8,0.3,2.5,1v-1.5
		c0-1.1-0.9-1.7-1.9-1.7c-0.9,0-1.6,0.3-2.3,1.1l-0.4-0.5c0.8-0.8,1.6-1.2,2.8-1.2c1.5,0,2.6,0.7,2.6,2.3v5.1H288.9z M288.9,37.4
		v-1.6c-0.5-0.7-1.3-1-2.2-1c-1.2,0-2,0.8-2,1.8c0,1,0.8,1.8,2,1.8C287.5,38.4,288.4,38,288.9,37.4"/>
	<path class="st0" d="M291.8,38.8l2-3c-1.2-0.1-2-0.9-2-2.1c0-1.2,0.8-2.1,2.2-2.1h3.6v7.2h-0.8v-3h-2.2l-1.9,3H291.8z M296.9,35.2
		v-2.9h-2.7c-0.9,0-1.5,0.6-1.5,1.5c0,0.9,0.5,1.5,1.5,1.5H296.9z"/>
	<polygon class="st0" points="199.9,56.8 197.5,53.6 195.1,56.8 194.1,56.8 197,53.1 194.3,49.6 195.2,49.6 197.5,52.5 199.7,49.6 
		200.7,49.6 197.9,53.1 200.8,56.8 	"/>
	<polygon class="st0" points="202.3,56.8 202.3,49.6 203.1,49.6 203.1,55.6 207.2,49.6 208,49.6 208,56.8 207.2,56.8 207.2,50.7 
		203,56.8 	"/>
	<polygon class="st0" points="216.4,56.8 216.4,50.6 214,56.8 213.7,56.8 211.2,50.6 211.2,56.8 210.4,56.8 210.4,49.6 211.4,49.6 
		213.8,55.4 216.1,49.6 217.2,49.6 217.2,56.8 	"/>
	<polygon class="st0" points="219.7,56.8 219.7,49.6 220.4,49.6 220.4,55.6 224.6,49.6 225.3,49.6 225.3,56.8 224.5,56.8 
		224.5,50.7 220.4,56.8 	"/>
	<path class="st0" d="M227.5,56.8l2-3c-1.2-0.1-2-0.9-2-2.1c0-1.2,0.8-2.1,2.2-2.1h3.6v7.2h-0.8v-3h-2.2l-1.9,3H227.5z M232.6,53.2
		v-2.9h-2.7c-0.9,0-1.5,0.6-1.5,1.5c0,0.9,0.5,1.5,1.5,1.5H232.6z"/>
	<rect x="181.1" y="29" class="st0" width="0.3" height="30.1"/>
</g>
</svg>
