<?xml version="1.0" encoding="UTF-8" standalone="no"?>
<!-- Generator: Adobe Illustrator 22.0.0, SVG Export Plug-In . SVG Version: 6.00 Build 0)  -->

<svg
   xmlns:dc="http://purl.org/dc/elements/1.1/"
   xmlns:cc="http://creativecommons.org/ns#"
   xmlns:rdf="http://www.w3.org/1999/02/22-rdf-syntax-ns#"
   xmlns:svg="http://www.w3.org/2000/svg"
   xmlns="http://www.w3.org/2000/svg"
   xmlns:xlink="http://www.w3.org/1999/xlink"
   xmlns:sodipodi="http://sodipodi.sourceforge.net/DTD/sodipodi-0.dtd"
   xmlns:inkscape="http://www.inkscape.org/namespaces/inkscape"
   version="1.1"
   id="Слой_1"
   x="0px"
   y="0px"
   viewBox="0 0 166.39999 74.8"
   xml:space="preserve"
   sodipodi:docname="header-logo-mobile.svg"
   width="166.39999"
   height="74.800003"
   inkscape:version="0.92.3 (2405546, 2018-03-11)"><metadata
   id="metadata69"><rdf:RDF><cc:Work
       rdf:about=""><dc:format>image/svg+xml</dc:format><dc:type
         rdf:resource="http://purl.org/dc/dcmitype/StillImage" /><dc:title></dc:title></cc:Work></rdf:RDF></metadata><defs
   id="defs67" /><sodipodi:namedview
   pagecolor="#ffffff"
   bordercolor="#666666"
   borderopacity="1"
   objecttolerance="10"
   gridtolerance="10"
   guidetolerance="10"
   inkscape:pageopacity="0"
   inkscape:pageshadow="2"
   inkscape:window-width="1231"
   inkscape:window-height="923"
   id="namedview65"
   showgrid="false"
   inkscape:zoom="2.4655693"
   inkscape:cx="130.58701"
   inkscape:cy="-7.4821498"
   inkscape:window-x="0"
   inkscape:window-y="0"
   inkscape:window-maximized="0"
   inkscape:current-layer="g62" />
<style
   type="text/css"
   id="style2">
	.st0{clip-path:url(#SVGID_2_);fill:#333333;}
	.st1{clip-path:url(#SVGID_2_);fill:#EA961C;}
	.st2{clip-path:url(#SVGID_2_);fill:#455BD7;}
</style>
<g
   id="g62">
	<defs
   id="defs5">
		<rect
   id="SVGID_1_"
   y="0"
   width="297.70001"
   height="74.800003"
   x="0" />
	</defs>
	<clipPath
   id="SVGID_2_">
		<use
   xlink:href="#SVGID_1_"
   style="overflow:visible"
   id="use7"
   x="0"
   y="0"
   width="100%"
   height="100%" />
	</clipPath>
	<path
   class="st0"
   d="M 0,34.4 C 0,32.5 0.4,31 1.3,30 c 0.9,-1 2.3,-1.5 4.2,-1.5 1.9,0 3.3,0.5 4.2,1.5 0.9,1 1.4,2.5 1.4,4.4 v 18.7 c 0,1.9 -0.5,3.4 -1.4,4.4 C 8.8,58.5 7.4,59 5.5,59 3.6,59 2.2,58.5 1.3,57.5 0.4,56.5 0,55 0,53.1 Z m 7.2,0.2 C 7.2,34 7.1,33.5 6.9,33.1 6.7,32.8 6.2,32.6 5.6,32.6 5,32.6 4.5,32.8 4.3,33.1 4.1,33.4 3.9,33.9 3.9,34.6 V 53 c 0,0.6 0.1,1.1 0.4,1.4 0.2,0.4 0.6,0.6 1.3,0.6 0.6,0 1.1,-0.2 1.3,-0.5 0.2,-0.3 0.3,-0.8 0.3,-1.5 z"
   clip-path="url(#SVGID_2_)"
   id="path10"
   inkscape:connector-curvature="0"
   style="fill:#333333" />
	<path
   class="st0"
   d="m 29.5,57.5 c -0.1,-0.2 -0.1,-0.4 -0.2,-0.6 -0.1,-0.2 -0.1,-0.5 -0.2,-0.8 -0.1,-0.3 -0.2,-0.8 -0.4,-1.4 -0.2,-0.6 -0.4,-1.3 -0.6,-2.3 -0.3,-1 -0.6,-2.2 -1,-3.6 -0.4,-1.4 -0.9,-3.2 -1.4,-5.2 v 1.8 c 0,0.6 0,1.2 0,1.8 0,0.6 0,1.3 0,2 v 2.3 5.4 c 0,0.6 -0.2,1.1 -0.5,1.4 -0.4,0.4 -0.8,0.5 -1.4,0.5 -0.6,0 -1.1,-0.2 -1.4,-0.5 C 22,58 21.9,57.5 21.9,56.9 V 30.7 c 0,-0.6 0.2,-1.1 0.5,-1.4 0.4,-0.4 0.8,-0.5 1.4,-0.5 0.6,0 1.1,0.2 1.4,0.5 0.4,0.4 0.5,0.8 0.5,1.4 v 4.1 2 c 0,0.6 0,1.2 0,1.7 0,0.5 0,1 0,1.6 v 1.6 c 0.5,-1.6 1.1,-3.4 1.8,-5.5 0.7,-2.1 1.4,-4.1 2.2,-6.1 0.2,-0.4 0.4,-0.8 0.7,-1 0.3,-0.2 0.7,-0.3 1,-0.3 0.5,0 1,0.2 1.4,0.6 0.4,0.4 0.6,0.8 0.6,1.3 0,0.2 0,0.3 -0.1,0.5 0,0.1 -0.2,0.4 -0.3,0.9 l -3.6,10 3.9,13.5 c 0.2,0.5 0.3,0.8 0.3,1 0,0.2 0,0.3 0,0.4 0,0.6 -0.2,1.1 -0.7,1.4 -0.5,0.4 -1,0.6 -1.5,0.6 C 31,59 30.6,58.9 30.3,58.7 29.9,58.3 29.6,58 29.5,57.5"
   clip-path="url(#SVGID_2_)"
   id="path12"
   inkscape:connector-curvature="0"
   style="fill:#333333" />
	<path
   class="st0"
   d="m 53.9,57.3 c 0,1.1 -0.5,1.6 -1.5,1.6 -0.5,0 -0.9,-0.1 -1.3,-0.4 C 50.7,58.2 50.5,57.7 50.3,57 49.9,57.7 49.5,58.2 49,58.5 48.5,58.9 47.8,59 46.9,59 44.3,59 43,57.4 43,54.3 V 50 c 0,-1.4 0.2,-2.6 0.5,-3.5 0.4,-0.9 0.9,-1.7 1.5,-2.4 0.7,-0.7 1.4,-1.2 2.3,-1.6 0.9,-0.4 1.8,-0.9 2.8,-1.3 v -6.7 c 0,-0.6 -0.1,-1.1 -0.4,-1.4 -0.2,-0.3 -0.7,-0.5 -1.3,-0.5 -0.6,0 -1.1,0.2 -1.3,0.5 -0.2,0.3 -0.3,0.8 -0.3,1.4 v 4.7 c 0,0.5 -0.2,1 -0.5,1.3 C 46,40.8 45.5,41 45,41 44.5,41 44,40.8 43.7,40.5 43.4,40.2 43.2,39.8 43.2,39.2 v -4.8 c 0,-3.9 1.7,-5.8 5.2,-5.8 3.5,0 5.3,1.9 5.3,5.8 V 56 c 0,0.3 0,0.5 0,0.7 0.2,0.2 0.2,0.4 0.2,0.6 m -3.8,-13 c -0.8,0.3 -1.4,0.6 -1.8,1 -0.4,0.4 -0.8,0.8 -1,1.3 -0.2,0.5 -0.3,1 -0.4,1.7 0,0.6 0,1.3 0,2.1 v 3.1 c 0,1.2 0.5,1.8 1.6,1.8 0.4,0 0.8,-0.1 1,-0.3 0.2,-0.2 0.4,-0.5 0.6,-1 z"
   clip-path="url(#SVGID_2_)"
   id="path14"
   inkscape:connector-curvature="0"
   style="fill:#333333" />
	<path
   class="st1"
   d="m 94.3,22 c 0,8.1 -6.5,14.6 -14.6,14.6 -8.1,0 -14.6,-6.5 -14.6,-14.6 0,-8.1 6.6,-14.6 14.6,-14.6 8.1,0 14.6,6.5 14.6,14.6"
   clip-path="url(#SVGID_2_)"
   id="path16"
   inkscape:connector-curvature="0"
   style="fill:#ea961c" />
	<path
   class="st2"
   d="m 117.2,50.2 c 0,5.5 -4.4,9.9 -9.9,9.9 -5.5,0 -9.9,-4.4 -9.9,-9.9 0,-5.5 4.4,-9.9 9.9,-9.9 5.4,0 9.9,4.4 9.9,9.9"
   clip-path="url(#SVGID_2_)"
   id="path18"
   inkscape:connector-curvature="0"
   style="fill:#455bd7" />
	<path
   class="st2"
   d="m 117.3,0 c -11,0 -13.2,8.9 -15,17.5 -2,10.1 -7.9,18.8 -16.9,23.9 -8.1,4.6 -20,2.6 -25.3,11.3 -5.7,9.5 1.2,22.1 12.4,22.1 13.2,0 13,-11.9 15.9,-21.2 2.9,-9.6 10.2,-17.5 19.3,-21.6 7.5,-3.4 17,-1.9 21.9,-9.6 C 135.5,12.9 128.6,0 117.3,0"
   clip-path="url(#SVGID_2_)"
   id="path20"
   inkscape:connector-curvature="0"
   style="fill:#455bd7" />
	<path
   class="st0"
   d="m 128.4,58.4 c -0.4,0.3 -0.8,0.5 -1.4,0.5 -0.5,0 -1,-0.2 -1.3,-0.5 -0.3,-0.3 -0.5,-0.8 -0.5,-1.3 V 30.7 c 0,-0.6 0.2,-1.1 0.5,-1.5 0.4,-0.4 0.9,-0.5 1.5,-0.5 0.6,0 1.1,0.2 1.5,0.5 0.4,0.4 0.5,0.9 0.5,1.5 v 16.1 l 3.5,-16.2 c 0.1,-0.6 0.4,-1 0.8,-1.4 0.4,-0.4 0.9,-0.5 1.6,-0.5 0.6,0 1.1,0.2 1.5,0.5 0.4,0.4 0.5,0.8 0.5,1.4 v 26.3 c 0,0.6 -0.2,1.1 -0.5,1.4 -0.4,0.4 -0.8,0.5 -1.4,0.5 -0.6,0 -1.1,-0.2 -1.4,-0.5 -0.4,-0.4 -0.5,-0.8 -0.5,-1.4 V 39.1 l -4.1,18 c -0.1,0.6 -0.4,1 -0.8,1.3"
   clip-path="url(#SVGID_2_)"
   id="path22"
   inkscape:connector-curvature="0"
   style="fill:#333333" />
	<path
   class="st0"
   d="m 165.4,58.4 c -0.4,0.4 -0.8,0.5 -1.4,0.5 -0.6,0 -1.1,-0.2 -1.4,-0.5 -0.4,-0.4 -0.5,-0.8 -0.5,-1.4 v -6.8 c 0,-2 0,-4 0.1,-6 0,-2 0.1,-3.9 0.2,-5.9 l -3.2,18.8 c -0.1,0.5 -0.3,1 -0.7,1.3 -0.4,0.3 -0.8,0.5 -1.4,0.5 -0.6,0 -1.1,-0.2 -1.4,-0.5 -0.4,-0.3 -0.6,-0.8 -0.7,-1.3 l -3.1,-18.8 c 0.1,1.9 0.1,3.9 0.2,5.9 0,2 0.1,3.9 0.1,6 V 57 c 0,0.6 -0.2,1.1 -0.5,1.4 -0.4,0.4 -0.8,0.5 -1.4,0.5 -0.6,0 -1.1,-0.2 -1.4,-0.5 -0.4,-0.4 -0.5,-0.8 -0.5,-1.4 V 31.6 c 0,-0.8 0.2,-1.4 0.7,-1.9 0.5,-0.5 1.2,-0.7 2.3,-0.7 1,0 1.7,0.2 2.2,0.6 0.5,0.4 0.8,1 0.9,1.6 l 2.8,19.7 3,-19.7 c 0.1,-0.7 0.4,-1.2 0.9,-1.6 0.5,-0.4 1.2,-0.6 2.2,-0.6 1.1,0 1.8,0.2 2.3,0.7 0.5,0.5 0.7,1.1 0.7,1.9 v 25.3 c -0.5,0.6 -0.7,1.1 -1,1.5"
   clip-path="url(#SVGID_2_)"
   id="path24"
   inkscape:connector-curvature="0"
   style="fill:#333333" />
	
	
	
	
	
	
	
	
	
	
	
	
	
	
	
	
	
	
</g>
</svg>