<?xml version="1.0" encoding="UTF-8" standalone="no"?>
<!-- Generator: Adobe Illustrator 22.0.0, SVG Export Plug-In . SVG Version: 6.00 Build 0)  -->

<svg
   xmlns:dc="http://purl.org/dc/elements/1.1/"
   xmlns:cc="http://creativecommons.org/ns#"
   xmlns:rdf="http://www.w3.org/1999/02/22-rdf-syntax-ns#"
   xmlns:svg="http://www.w3.org/2000/svg"
   xmlns="http://www.w3.org/2000/svg"
   xmlns:xlink="http://www.w3.org/1999/xlink"
   xmlns:sodipodi="http://sodipodi.sourceforge.net/DTD/sodipodi-0.dtd"
   xmlns:inkscape="http://www.inkscape.org/namespaces/inkscape"
   version="1.1"
   id="Слой_1"
   x="0px"
   y="0px"
   viewBox="0 0 297.7 74.8"
   style="enable-background:new 0 0 297.7 74.8;"
   xml:space="preserve"
   sodipodi:docname="header-logo.svg"><metadata
   id="metadata69"><rdf:RDF><cc:Work
       rdf:about=""><dc:format>image/svg+xml</dc:format><dc:type
         rdf:resource="http://purl.org/dc/dcmitype/StillImage" /></cc:Work></rdf:RDF></metadata><defs
   id="defs67" /><sodipodi:namedview
   pagecolor="#ffffff"
   bordercolor="#666666"
   borderopacity="1"
   objecttolerance="10"
   gridtolerance="10"
   guidetolerance="10"
   inkscape:pageopacity="0"
   inkscape:pageshadow="2"
   inkscape:window-width="640"
   inkscape:window-height="480"
   id="namedview65"
   showgrid="false" />
<style
   type="text/css"
   id="style2">
	.st0{clip-path:url(#SVGID_2_);fill:#333333;}
	.st1{clip-path:url(#SVGID_2_);fill:#EA961C;}
	.st2{clip-path:url(#SVGID_2_);fill:#455BD7;}
</style>
<g
   id="g62">
	<defs
   id="defs5">
		<rect
   id="SVGID_1_"
   y="0"
   width="297.7"
   height="74.8" />
	</defs>
	<clipPath
   id="SVGID_2_">
		<use
   xlink:href="#SVGID_1_"
   style="overflow:visible;"
   id="use7" />
	</clipPath>
	<path
   class="st0"
   d="M0,34.4c0-1.9,0.4-3.4,1.3-4.4c0.9-1,2.3-1.5,4.2-1.5c1.9,0,3.3,0.5,4.2,1.5c0.9,1,1.4,2.5,1.4,4.4v18.7   c0,1.9-0.5,3.4-1.4,4.4c-0.9,1-2.3,1.5-4.2,1.5c-1.9,0-3.3-0.5-4.2-1.5c-0.9-1-1.3-2.5-1.3-4.4V34.4z M7.2,34.6   c0-0.6-0.1-1.1-0.3-1.5c-0.2-0.3-0.7-0.5-1.3-0.5c-0.6,0-1.1,0.2-1.3,0.5c-0.2,0.3-0.4,0.8-0.4,1.5V53c0,0.6,0.1,1.1,0.4,1.4   C4.5,54.8,4.9,55,5.6,55c0.6,0,1.1-0.2,1.3-0.5c0.2-0.3,0.3-0.8,0.3-1.5V34.6z"
   clip-path="url(#SVGID_2_)"
   id="path10" />
	<path
   class="st0"
   d="M29.5,57.5c-0.1-0.2-0.1-0.4-0.2-0.6c-0.1-0.2-0.1-0.5-0.2-0.8c-0.1-0.3-0.2-0.8-0.4-1.4   c-0.2-0.6-0.4-1.3-0.6-2.3c-0.3-1-0.6-2.2-1-3.6c-0.4-1.4-0.9-3.2-1.4-5.2v1.8c0,0.6,0,1.2,0,1.8c0,0.6,0,1.3,0,2v2.3v5.4   c0,0.6-0.2,1.1-0.5,1.4c-0.4,0.4-0.8,0.5-1.4,0.5c-0.6,0-1.1-0.2-1.4-0.5c-0.4-0.3-0.5-0.8-0.5-1.4V30.7c0-0.6,0.2-1.1,0.5-1.4   c0.4-0.4,0.8-0.5,1.4-0.5c0.6,0,1.1,0.2,1.4,0.5c0.4,0.4,0.5,0.8,0.5,1.4v4.1v2c0,0.6,0,1.2,0,1.7c0,0.5,0,1,0,1.6v1.6   c0.5-1.6,1.1-3.4,1.8-5.5c0.7-2.1,1.4-4.1,2.2-6.1c0.2-0.4,0.4-0.8,0.7-1c0.3-0.2,0.7-0.3,1-0.3c0.5,0,1,0.2,1.4,0.6   c0.4,0.4,0.6,0.8,0.6,1.3c0,0.2,0,0.3-0.1,0.5c0,0.1-0.2,0.4-0.3,0.9l-3.6,10l3.9,13.5c0.2,0.5,0.3,0.8,0.3,1c0,0.2,0,0.3,0,0.4   c0,0.6-0.2,1.1-0.7,1.4c-0.5,0.4-1,0.6-1.5,0.6c-0.4,0-0.8-0.1-1.1-0.3C29.9,58.3,29.6,58,29.5,57.5"
   clip-path="url(#SVGID_2_)"
   id="path12" />
	<path
   class="st0"
   d="M53.9,57.3c0,1.1-0.5,1.6-1.5,1.6c-0.5,0-0.9-0.1-1.3-0.4c-0.4-0.3-0.6-0.8-0.8-1.5c-0.4,0.7-0.8,1.2-1.3,1.5   c-0.5,0.4-1.2,0.5-2.1,0.5c-2.6,0-3.9-1.6-3.9-4.7V50c0-1.4,0.2-2.6,0.5-3.5c0.4-0.9,0.9-1.7,1.5-2.4c0.7-0.7,1.4-1.2,2.3-1.6   c0.9-0.4,1.8-0.9,2.8-1.3v-6.7c0-0.6-0.1-1.1-0.4-1.4c-0.2-0.3-0.7-0.5-1.3-0.5c-0.6,0-1.1,0.2-1.3,0.5c-0.2,0.3-0.3,0.8-0.3,1.4   v4.7c0,0.5-0.2,1-0.5,1.3c-0.3,0.3-0.8,0.5-1.3,0.5c-0.5,0-1-0.2-1.3-0.5c-0.3-0.3-0.5-0.7-0.5-1.3v-4.8c0-3.9,1.7-5.8,5.2-5.8   c3.5,0,5.3,1.9,5.3,5.8V56c0,0.3,0,0.5,0,0.7C53.9,56.9,53.9,57.1,53.9,57.3 M50.1,44.3c-0.8,0.3-1.4,0.6-1.8,1   c-0.4,0.4-0.8,0.8-1,1.3c-0.2,0.5-0.3,1-0.4,1.7c0,0.6,0,1.3,0,2.1v3.1c0,1.2,0.5,1.8,1.6,1.8c0.4,0,0.8-0.1,1-0.3   c0.2-0.2,0.4-0.5,0.6-1V44.3z"
   clip-path="url(#SVGID_2_)"
   id="path14" />
	<path
   class="st1"
   d="M94.3,22c0,8.1-6.5,14.6-14.6,14.6c-8.1,0-14.6-6.5-14.6-14.6S71.7,7.4,79.7,7.4C87.8,7.4,94.3,13.9,94.3,22"
   clip-path="url(#SVGID_2_)"
   id="path16" />
	<path
   class="st2"
   d="M117.2,50.2c0,5.5-4.4,9.9-9.9,9.9c-5.5,0-9.9-4.4-9.9-9.9s4.4-9.9,9.9-9.9C112.7,40.3,117.2,44.7,117.2,50.2"
   clip-path="url(#SVGID_2_)"
   id="path18" />
	<path
   class="st2"
   d="M117.3,0c-11,0-13.2,8.9-15,17.5c-2,10.1-7.9,18.8-16.9,23.9c-8.1,4.6-20,2.6-25.3,11.3   c-5.7,9.5,1.2,22.1,12.4,22.1c13.2,0,13-11.9,15.9-21.2C91.3,44,98.6,36.1,107.7,32c7.5-3.4,17-1.9,21.9-9.6   C135.5,12.9,128.6,0,117.3,0"
   clip-path="url(#SVGID_2_)"
   id="path20" />
	<path
   class="st0"
   d="M128.4,58.4c-0.4,0.3-0.8,0.5-1.4,0.5c-0.5,0-1-0.2-1.3-0.5c-0.3-0.3-0.5-0.8-0.5-1.3V30.7   c0-0.6,0.2-1.1,0.5-1.5c0.4-0.4,0.9-0.5,1.5-0.5c0.6,0,1.1,0.2,1.5,0.5c0.4,0.4,0.5,0.9,0.5,1.5v16.1l3.5-16.2   c0.1-0.6,0.4-1,0.8-1.4c0.4-0.4,0.9-0.5,1.6-0.5c0.6,0,1.1,0.2,1.5,0.5c0.4,0.4,0.5,0.8,0.5,1.4v26.3c0,0.6-0.2,1.1-0.5,1.4   c-0.4,0.4-0.8,0.5-1.4,0.5c-0.6,0-1.1-0.2-1.4-0.5c-0.4-0.4-0.5-0.8-0.5-1.4V39.1l-4.1,18C129.1,57.7,128.8,58.1,128.4,58.4"
   clip-path="url(#SVGID_2_)"
   id="path22" />
	<path
   class="st0"
   d="M165.4,58.4c-0.4,0.4-0.8,0.5-1.4,0.5c-0.6,0-1.1-0.2-1.4-0.5c-0.4-0.4-0.5-0.8-0.5-1.4v-6.8c0-2,0-4,0.1-6   c0-2,0.1-3.9,0.2-5.9l-3.2,18.8c-0.1,0.5-0.3,1-0.7,1.3c-0.4,0.3-0.8,0.5-1.4,0.5c-0.6,0-1.1-0.2-1.4-0.5c-0.4-0.3-0.6-0.8-0.7-1.3   l-3.1-18.8c0.1,1.9,0.1,3.9,0.2,5.9c0,2,0.1,3.9,0.1,6v6.8c0,0.6-0.2,1.1-0.5,1.4c-0.4,0.4-0.8,0.5-1.4,0.5c-0.6,0-1.1-0.2-1.4-0.5   c-0.4-0.4-0.5-0.8-0.5-1.4V31.6c0-0.8,0.2-1.4,0.7-1.9c0.5-0.5,1.2-0.7,2.3-0.7c1,0,1.7,0.2,2.2,0.6c0.5,0.4,0.8,1,0.9,1.6   l2.8,19.7l3-19.7c0.1-0.7,0.4-1.2,0.9-1.6c0.5-0.4,1.2-0.6,2.2-0.6c1.1,0,1.8,0.2,2.3,0.7c0.5,0.5,0.7,1.1,0.7,1.9v25.3   C165.9,57.5,165.7,58,165.4,58.4"
   clip-path="url(#SVGID_2_)"
   id="path24" />
	
	
	
	
	
	
	
	
	
	
	
	
	
	
	
	
	
	
</g>
</svg>