<svg xmlns="http://www.w3.org/2000/svg" width="17" height="18" viewBox="0 0 22 25">
<g>
<g>
<path fill="#455bd7" d="M11.9,15.8v-1.6c0-0.3,0.3-0.6,0.6-0.6h0.9c0-1.4-1.5-3.5-2.4-4.6c-0.4,0.5-2.4,2.8-2.4,4.5C8.6,15.3,10.3,16.5,11.9,15.8z
		"/>
	<path fill="#455bd7" d="M13.4,13.5c0-1.7-2-4-2.4-4.5c-1,1.1-2.5,3.1-2.4,4.6h0.9c0.3,0,0.6,0.3,0.6,0.6v1.6C11.7,16.5,13.4,15.3,13.4,13.5z"/>
	<path fill="#455bd7" d="M3.9,15.8v-1.6c0-0.3,0.3-0.6,0.6-0.6h0.9C5.5,12.1,4,10.1,3,9c-0.4,0.5-2.4,2.8-2.4,4.5C0.6,15.3,2.3,16.5,3.9,15.8z"/>
	<path fill="#455bd7" d="M5.4,13.5c0-1.7-2-4-2.4-4.5c-1,1.1-2.5,3.1-2.4,4.6h0.9c0.3,0,0.6,0.3,0.6,0.6v1.6C3.7,16.5,5.4,15.3,5.4,13.5z"/>
	<path fill="#455bd7" d="M19.9,15.8v-1.6c0-0.3,0.3-0.6,0.6-0.6h0.9c0-1.4-1.5-3.5-2.4-4.6c-0.4,0.5-2.4,2.8-2.4,4.5C16.6,15.3,18.3,16.5,19.9,15.8
		z"/>
	<path fill="#455bd7" d="M21.4,13.5c0-1.7-2-4-2.4-4.5c-1,1.1-2.5,3.1-2.4,4.6h0.9c0.3,0,0.6,0.3,0.6,0.6v1.6C19.7,16.5,21.4,15.3,21.4,13.5z"/>
	
	<path fill="#455bd7" d="M11.9,24.8v-1.6c0-0.3,0.3-0.6,0.6-0.6h0.9c0-1.4-1.5-3.5-2.4-4.6c-0.4,0.5-2.4,2.8-2.4,4.5C8.6,24.3,10.3,25.5,11.9,24.8z
		"/>
	<path fill="#455bd7" d="M13.4,22.5c0-1.7-2-4-2.4-4.5c-1,1.1-2.5,3.1-2.4,4.6h0.9c0.3,0,0.6,0.3,0.6,0.6v1.6C11.7,25.5,13.4,24.3,13.4,22.5z"/>
	<path fill="#455bd7" d="M3.9,24.8v-1.6c0-0.3,0.3-0.6,0.6-0.6h0.9C5.5,21.1,4,19.1,3,18c-0.4,0.5-2.4,2.8-2.4,4.5C0.6,24.3,2.3,25.5,3.9,24.8z"/>
	<path fill="#455bd7" d="M5.4,22.5c0-1.7-2-4-2.4-4.5c-1,1.1-2.5,3.1-2.4,4.6h0.9c0.3,0,0.6,0.3,0.6,0.6v1.6C3.7,25.5,5.4,24.3,5.4,22.5z"/>
	<path fill="#455bd7" d="M19.9,24.8v-1.6c0-0.3,0.3-0.6,0.6-0.6h0.9c0-1.4-1.5-3.5-2.4-4.6c-0.4,0.5-2.4,2.8-2.4,4.5C16.6,24.3,18.3,25.5,19.9,24.8
		z"/>
	<path fill="#455bd7" d="M21.4,22.5c0-1.7-2-4-2.4-4.5c-1,1.1-2.5,3.1-2.4,4.6h0.9c0.3,0,0.6,0.3,0.6,0.6v1.6C19.7,25.5,21.4,24.3,21.4,22.5z"/>
	<path fill="#455bd7" d="M11.9,6.8V5.2c0-0.3,0.3-0.6,0.6-0.6h0.9C13.5,3.1,12,1.1,11,0c-0.4,0.5-2.4,2.8-2.4,4.5C8.6,6.3,10.3,7.5,11.9,6.8z"/>
	<path fill="#455bd7" class="st0" d="M-145.6-217"/>
	<path fill="#455bd7" d="M13.4,4.5c0-1.7-2-4-2.4-4.5c-1,1.1-2.5,3.1-2.4,4.6h0.9c0.3,0,0.6,0.3,0.6,0.6v1.6C11.7,7.5,13.4,6.3,13.4,4.5z"/>
	<path fill="#455bd7" d="M3.9,6.8V5.2c0-0.3,0.3-0.6,0.6-0.6h0.9C5.5,3.1,4,1.1,3,0C2.6,0.5,0.6,2.8,0.6,4.5C0.6,6.3,2.3,7.5,3.9,6.8z"/>
	<path fill="#455bd7" d="M5.4,4.5c0-1.7-2-4-2.4-4.5C2,1.1,0.5,3.1,0.6,4.6h0.9c0.3,0,0.6,0.3,0.6,0.6v1.6C3.7,7.5,5.4,6.3,5.4,4.5z"/>
	<path fill="#455bd7" d="M19.9,6.8V5.2c0-0.3,0.3-0.6,0.6-0.6h0.9C21.5,3.1,20,1.1,19,0c-0.4,0.5-2.4,2.8-2.4,4.5C16.6,6.3,18.3,7.5,19.9,6.8z"/>
	<path fill="#455bd7" d="M21.4,4.5c0-1.7-2-4-2.4-4.5c-1,1.1-2.5,3.1-2.4,4.6h0.9c0.3,0,0.6,0.3,0.6,0.6v1.6C19.7,7.5,21.4,6.3,21.4,4.5z"/></g>
</g>
</svg>