<svg xmlns="http://www.w3.org/2000/svg" viewBox="0 0 16.95 21"><defs><style>.cls-1{fill:#fff;}.cls-2{fill:#ea961c;}.cls-3{fill:#455bd7;}</style></defs><title>Ресурс 2map-mark-1</title><g id="Слой_2" data-name="Слой 2"><g id="Слой_1-2" data-name="Слой 1"><path class="cls-1" d="M8.48,0A8.39,8.39,0,0,0,0,8.28c0,7,7.78,12.26,8.12,12.48l.36.24.36-.24C9.17,20.54,17,15.27,17,8.28A8.39,8.39,0,0,0,8.48,0Z"/><circle class="cls-2" cx="6.39" cy="7.02" r="2.14"/><circle class="cls-3" cx="10.43" cy="11.16" r="1.45"/><path class="cls-3" d="M11.9,3.79C10.29,3.79,10,5.1,9.71,6.36a5.11,5.11,0,0,1-2.49,3.5c-1.18.68-2.94.39-3.71,1.66a2.16,2.16,0,0,0,1.82,3.25c1.94,0,1.91-1.75,2.32-3.11a5.28,5.28,0,0,1,2.84-3.18C11.59,8,13,8.21,13.7,7.07A2.15,2.15,0,0,0,11.9,3.79Z"/></g></g></svg>