<?xml version="1.0" encoding="UTF-8" standalone="no"?>
<!-- Generator: Adobe Illustrator 23.0.0, SVG Export Plug-In . SVG Version: 6.00 Build 0)  -->

<svg
   xmlns:dc="http://purl.org/dc/elements/1.1/"
   xmlns:cc="http://creativecommons.org/ns#"
   xmlns:rdf="http://www.w3.org/1999/02/22-rdf-syntax-ns#"
   xmlns:svg="http://www.w3.org/2000/svg"
   xmlns="http://www.w3.org/2000/svg"
   xmlns:sodipodi="http://sodipodi.sourceforge.net/DTD/sodipodi-0.dtd"
   xmlns:inkscape="http://www.inkscape.org/namespaces/inkscape"
   version="1.1"
   id="Слой_1"
   x="0px"
   y="0px"
   viewBox="0 0 17 21"
   xml:space="preserve"
   sodipodi:docname="map-mark-2.svg"
   width="17"
   height="21"
   inkscape:version="0.92.3 (2405546, 2018-03-11)"><metadata
   id="metadata19"><rdf:RDF><cc:Work
       rdf:about=""><dc:format>image/svg+xml</dc:format><dc:type
         rdf:resource="http://purl.org/dc/dcmitype/StillImage" /></cc:Work></rdf:RDF></metadata><defs
   id="defs17" /><sodipodi:namedview
   pagecolor="#ffffff"
   bordercolor="#666666"
   borderopacity="1"
   objecttolerance="10"
   gridtolerance="10"
   guidetolerance="10"
   inkscape:pageopacity="0"
   inkscape:pageshadow="2"
   inkscape:window-width="776"
   inkscape:window-height="480"
   id="namedview15"
   showgrid="false"
   inkscape:zoom="8.9703855"
   inkscape:cx="9.6970819"
   inkscape:cy="10.062551"
   inkscape:window-x="0"
   inkscape:window-y="0"
   inkscape:window-maximized="0"
   inkscape:current-layer="Слой_1" />
<style
   type="text/css"
   id="style2">
	.st0{fill:#EA961C;}
	.st1{fill:#FFFFFF;}
</style>
<path
   class="st0"
   d="M 8.5,0 C 3.8,0 0,3.7 0,8.3 c 0,7 7.8,12.3 8.1,12.5 L 8.5,21 8.9,20.8 C 9.2,20.6 17,15.3 17,8.3 17,3.7 13.2,0 8.5,0 Z"
   id="path4"
   inkscape:connector-curvature="0"
   style="fill:#ea961c" />
<g
   id="g12"
   transform="translate(110.5,-243)">
	<circle
   class="st1"
   cx="-104.1"
   cy="250"
   r="2.0999999"
   id="circle6"
   style="fill:#ffffff" />
	<circle
   class="st1"
   cx="-100"
   cy="254.2"
   r="1.5"
   id="circle8"
   style="fill:#ffffff" />
	<path
   class="st1"
   d="m -98.6,246.8 c -1.6,0 -1.9,1.3 -2.2,2.6 -0.3,1.5 -1.2,2.8 -2.5,3.5 -1.2,0.7 -2.9,0.4 -3.7,1.7 -0.8,1.4 0.2,3.2 1.8,3.2 1.9,0 1.9,-1.7 2.3,-3.1 0.4,-1.4 1.5,-2.6 2.8,-3.2 1.1,-0.5 2.5,-0.3 3.2,-1.4 1,-1.4 0,-3.3 -1.7,-3.3 z"
   id="path10"
   inkscape:connector-curvature="0"
   style="fill:#ffffff" />
</g>
</svg>