<svg xmlns="http://www.w3.org/2000/svg" viewBox="0 0 17 20"><defs><style>.cls-1{fill:none;stroke:#fff;stroke-linecap:round;stroke-linejoin:round;stroke-width:2px;}</style></defs><title>Ресурс 1</title><g id="Слой_2" data-name="Слой 2"><g id="Editorial_Content" data-name="Editorial / Content"><line class="cls-1" x1="8.26" y1="11.64" x2="13.4" y2="6.49"/><line class="cls-1" x1="15.5" y1="8.6" x2="10.37" y2="13.74"/><path class="cls-1" d="M13.46,6.44a1.49,1.49,0,0,1,2.11,2.1"/><polyline class="cls-1" points="10.37 13.73 7 15 8.27 11.64"/><path class="cls-1" d="M13,3V1.73A.73.73,0,0,0,12.27,1H6"/><path class="cls-1" d="M1,7V18.27a.73.73,0,0,0,.73.73H12.27a.73.73,0,0,0,.73-.73V16"/><polygon class="cls-1" points="1 7 5.97 7 5.97 1.03 1 7"/></g></g></svg>
