<svg xmlns="http://www.w3.org/2000/svg" viewBox="0 0 57.26 64.04"><defs><style>.cls-1,.cls-2{fill:#ea961c;}.cls-1{fill-rule:evenodd;}.cls-3{fill:#455bd7;}</style></defs><title>phone-partner</title><g id="Слой_2" data-name="Слой 2"><g id="Layer_1" data-name="Layer 1"><path class="cls-1" d="M18.28,5.36H55.71a1.54,1.54,0,0,1,1.55,1.55V44.3a1.54,1.54,0,0,1-1.55,1.55H18.28V5.36Zm27.12,32v3.1h6.2v-3.1Zm0-6.2v3.1h6.2v-3.1Zm-10.85,6.2v3.1h6.2v-3.1Zm0-6.2v3.1h6.2v-3.1Zm-10.84,6.2v3.1H29.9v-3.1Zm0-6.2v3.1H29.9v-3.1ZM45.4,25v3.1h6.2V25ZM34.55,25v3.1h6.2V25ZM23.71,25v3.1H29.9V25Zm26.37-3.09h1.55V11H23.71V21.89H50.08Z"/><path class="cls-2" d="M4,0h8.79a4,4,0,0,1,2.81,1.17A3.93,3.93,0,0,1,16.73,4V47.24a4,4,0,0,1-1.16,2.81,4,4,0,0,1-2.81,1.16H4a4,4,0,0,1-4-4V4A4,4,0,0,1,4,0Z"/><path class="cls-3" d="M7.11,52.07c0,.36,0,.75,0,1.15C7,57.37,6.82,63.74,16.35,64a10.72,10.72,0,0,0,5.48-1.17,10.93,10.93,0,0,0,3.5-3,20,20,0,0,1,3.38-3.59A6.14,6.14,0,0,1,31.15,55c1.65-.36,3.11.63,4.49,1.56s2.73,1.83,4.42,1.84c4,0,5.16-2.1,5.19-4.92a21.53,21.53,0,0,0-.75-4.85c-.09-.42-.19-.82-.27-1.21H41.5c.11.58.25,1.18.4,1.81a20.25,20.25,0,0,1,.68,4.23c0,1.29-.56,2.27-2.5,2.26a6.35,6.35,0,0,1-2.95-1.4c-1.84-1.24-3.79-2.55-6.54-2a8.88,8.88,0,0,0-3.51,1.76,22.65,22.65,0,0,0-3.87,4.07,8.07,8.07,0,0,1-2.63,2.31,8.16,8.16,0,0,1-4.16.86c-6.85-.21-6.75-5.11-6.66-8.05,0-.42,0-.83,0-1.22Z"/><rect class="cls-3" x="25.18" y="12.59" width="24.9" height="7.75"/></g></g></svg>