<svg xmlns="http://www.w3.org/2000/svg" viewBox="0 0 7.23 13.03"><defs><style>.cls-1{fill:#333;fill-rule:evenodd;}</style></defs><title>soc-ok</title><g id="Слой_2" data-name="Слой 2"><g id="social.svg"><g id="Одноклассники"><path id="Одноклассники_copy_26" data-name="Одноклассники copy 26" class="cls-1" d="M3.62,0A3.5,3.5,0,1,1,.1,3.5,3.5,3.5,0,0,1,3.62,0Zm0,2a1.51,1.51,0,0,1,1.5,1.53A1.52,1.52,0,1,1,3.62,2ZM3.62,8a6,6,0,0,0,2-.36A5.9,5.9,0,0,1,6.7,7.09c.22,0,.58.38.52,1.32,0,.54-1,.76-1.36,1a2.43,2.43,0,0,1-.73.25l1.06,1.13A2.62,2.62,0,0,1,7.14,12a1.31,1.31,0,0,1-1,1,4.33,4.33,0,0,1-1.4-1.12L3.63,10.84s-.55.49-1.12,1.05A4.42,4.42,0,0,1,1.14,13,1.43,1.43,0,0,1,.08,11.87a6.77,6.77,0,0,1,1.24-1.48,8.18,8.18,0,0,1,.8-.76,1.85,1.85,0,0,1-.64-.21C1,9.15,0,8.87,0,8.38s.16-1.3.62-1.3a6.07,6.07,0,0,1,1.12.54A4.35,4.35,0,0,0,3.62,8Z"/></g></g></g></svg>