<svg xmlns="http://www.w3.org/2000/svg" viewBox="0 0 13.02 12.99"><defs><style>.cls-1{fill:#333;fill-rule:evenodd;}</style></defs><title>soc-vb</title><g id="Слой_2" data-name="Слой 2"><g id="social.svg"><g id="Viber"><path class="cls-1" d="M3.43.92c.37.6,1.2,2.05,1.32,2.31A.82.82,0,0,1,4.51,4.3,5.59,5.59,0,0,0,3.6,5c-.14.27-.27,1.3,1.27,2.83S7.65,9.66,8,9.32s.51-.72.71-.92a.86.86,0,0,1,1.16-.1,24.72,24.72,0,0,1,2.45,1.5c.49.38.86.65.68,1.14a3.46,3.46,0,0,1-.8,1.31,2.51,2.51,0,0,1-2.28.68A10.17,10.17,0,0,1,6.64,11.5,19.63,19.63,0,0,1,3.72,9,20.32,20.32,0,0,1,1.49,6.37,11.67,11.67,0,0,1,.08,2.81,2.07,2.07,0,0,1,.51.89,3,3,0,0,1,2,.05C2.37,0,2.81,0,3.43.92Zm3.09.16V0A6.5,6.5,0,0,1,13,6.5H11.94A5.42,5.42,0,0,0,6.52,1.08ZM10.85,6.5H9.77A3.26,3.26,0,0,0,6.52,3.25V2.17A4.33,4.33,0,0,1,10.85,6.5Z"/></g></g></g></svg>