<svg xmlns="http://www.w3.org/2000/svg" viewBox="0 0 15.07 9.01"><defs><style>.cls-1{fill:#333;fill-rule:evenodd;}</style></defs><title>soc-vk</title><g id="Слой_2" data-name="Слой 2"><g id="social.svg"><g id="Vkontakte"><path id="Вконтакте_copy_26" data-name="Вконтакте copy 26" class="cls-1" d="M9,.78V4a.34.34,0,0,0,.32.36h.11c.3,0,1-2.8,1.28-3.4a1.89,1.89,0,0,1,.73-.83A.56.56,0,0,1,11.8,0h2.88a.46.46,0,0,1,.38.53A.41.41,0,0,1,15,.73c-.23.5-2.16,3.61-2.26,3.74a1.22,1.22,0,0,0-.23.55,1.21,1.21,0,0,0,.31.63c.2.22,1.81,2,2,2.15a1.2,1.2,0,0,1,.27.58.76.76,0,0,1-.8.61H11.9a2.68,2.68,0,0,1-1-.56c-.23-.2-1.06-1.16-1.19-1.28A.42.42,0,0,0,9.41,7C9.26,7,9,7,9,7.59a2.07,2.07,0,0,1-.24,1.14A1,1,0,0,1,8,9,5,5,0,0,1,5.1,8.28C3.53,7.3,1.73,4.69.9,3A6.54,6.54,0,0,1,0,.31C.05.13.05,0,.23,0h2.6a.89.89,0,0,1,.35.32c.07.1.64,1.82.82,2.12s1,2,1.51,2A.61.61,0,0,0,6,3.7V1.52a1.91,1.91,0,0,0-1-1A1.23,1.23,0,0,1,5.93,0,23.79,23.79,0,0,1,8.36,0,.78.78,0,0,1,9,.78Z"/></g></g></g></svg>